<svg xmlns="http://www.w3.org/2000/svg" version="1.1" xmlns:xlink="http://www.w3.org/1999/xlink" width="512" height="512" x="0" y="0" viewBox="0 0 512 512" style="enable-background:new 0 0 512 512" xml:space="preserve" class=""><g><path d="M187.07 308.699c-.13-.64-.32-1.27-.57-1.87a9.87 9.87 0 0 0-2.17-3.25c-2.32-2.32-5.77-3.39-9.02-2.73-.64.13-1.27.32-1.87.57-.61.25-1.19.56-1.73.92-.55.36-1.06.78-1.52 1.24-.46.46-.88.97-1.24 1.52a9.87 9.87 0 0 0-.92 1.73 10.098 10.098 0 0 0-.77 3.82c0 .65.07 1.31.2 1.96.13.63.32 1.26.57 1.87.25.6.56 1.18.92 1.72.36.55.78 1.06 1.24 1.52a9.87 9.87 0 0 0 3.25 2.17 9.84 9.84 0 0 0 3.82.76c2.63 0 5.21-1.07 7.07-2.93.46-.46.88-.97 1.25-1.52.36-.54.67-1.12.92-1.72.25-.61.44-1.24.57-1.87.13-.65.19-1.31.19-1.96s-.06-1.31-.19-1.95z" fill="#000000" opacity="1" data-original="#000000" class=""></path><path d="M502 481.385h-20.714V330.586c0-16.506-13.428-29.934-29.934-29.934h-17.077v-98.64c0-16.505-13.428-29.934-29.934-29.934h-30.698v-29.034a40.349 40.349 0 0 0 18.71-10.625 40.583 40.583 0 0 0 7.699-46.682L372.61 30.142a10 10 0 0 0-17.934 0l-27.442 55.596a40.584 40.584 0 0 0 7.699 46.682 40.349 40.349 0 0 0 18.71 10.625v29.034H266v-42.988a40.349 40.349 0 0 0 18.71-10.625 40.585 40.585 0 0 0 7.699-46.682l-27.442-55.596a10 10 0 0 0-17.934 0l-27.442 55.597a40.585 40.585 0 0 0 7.699 46.681A40.349 40.349 0 0 0 246 129.091v42.988h-87.643v-29.003c7.02-1.77 13.458-5.404 18.71-10.656a40.583 40.583 0 0 0 7.699-46.682l-27.442-55.596a10 10 0 0 0-17.934 0l-27.442 55.597a40.587 40.587 0 0 0 7.699 46.682c5.252 5.252 11.69 8.886 18.71 10.656v29.003h-30.698c-16.506 0-29.934 13.428-29.934 29.934v98.64H60.648c-16.506 0-29.934 13.428-29.934 29.934V481.387H10c-5.523 0-10 4.477-10 10s4.477 10 10 10h492c5.523 0 10-4.477 10-10s-4.477-10.002-10-10.002zM349.075 118.276a20.592 20.592 0 0 1-3.906-23.687l18.475-37.429 18.475 37.429a20.594 20.594 0 0 1-3.906 23.687 20.503 20.503 0 0 1-4.568 3.426 20.66 20.66 0 0 1-20 0 20.407 20.407 0 0 1-4.57-3.426zm-107.643-13.953a20.594 20.594 0 0 1-3.906-23.687L256 43.208l18.475 37.429a20.594 20.594 0 0 1-3.906 23.687 20.503 20.503 0 0 1-4.568 3.426 20.66 20.66 0 0 1-20 0 20.49 20.49 0 0 1-4.569-3.427zm-107.643 13.953a20.592 20.592 0 0 1-3.906-23.687l18.475-37.429 18.475 37.429a20.594 20.594 0 0 1-3.906 23.687 20.503 20.503 0 0 1-4.568 3.426 20.66 20.66 0 0 1-20 0 20.407 20.407 0 0 1-4.57-3.426zm-26.13 73.802h296.683c5.478 0 9.934 4.456 9.934 9.934v31.396c-4.406 1.384-9.153 2.021-14.755 2.021-14.914 0-21.72-4.537-30.336-10.281-9.591-6.394-20.461-13.64-41.43-13.64-20.968 0-31.838 7.246-41.428 13.64-8.616 5.744-15.421 10.281-30.334 10.281s-21.718-4.537-30.333-10.281c-9.59-6.393-20.459-13.64-41.427-13.64-20.967 0-31.836 7.247-41.426 13.64-8.615 5.744-15.42 10.281-30.331 10.281-5.6 0-10.345-.638-14.75-2.02v-31.397h-.001c0-5.478 4.457-9.934 9.934-9.934zm353.627 289.307H50.714v-96.109c8.502 1.564 13.918 5.168 20.333 9.445 9.59 6.394 20.459 13.64 41.428 13.64 20.967 0 31.836-7.247 41.426-13.64 8.615-5.744 15.42-10.281 30.331-10.281 14.912 0 21.718 4.537 30.333 10.281 9.59 6.394 20.459 13.64 41.427 13.64 20.969 0 31.838-7.247 41.428-13.64 8.616-5.744 15.421-10.281 30.334-10.281 14.914 0 21.72 4.537 30.336 10.281 9.591 6.393 20.46 13.64 41.43 13.64 20.969 0 31.839-7.247 41.43-13.64 6.416-4.277 11.833-7.882 20.336-9.446v96.11zm0-116.34c-14.683 1.87-23.495 7.744-31.43 13.034-8.616 5.744-15.422 10.281-30.336 10.281s-21.719-4.537-30.336-10.281c-9.591-6.393-20.461-13.64-41.43-13.64-20.968 0-31.838 7.247-41.428 13.64-8.616 5.744-15.421 10.281-30.334 10.281s-21.718-4.537-30.333-10.281c-9.59-6.394-20.459-13.64-41.428-13.64-20.967 0-31.836 7.247-41.426 13.64-8.615 5.744-15.42 10.281-30.331 10.281-14.913 0-21.718-4.537-30.333-10.281-7.935-5.29-16.745-11.164-31.427-13.034v-34.46c0-5.478 4.457-9.934 9.934-9.934h76.745c5.523 0 10-4.477 10-10s-4.477-10-10-10H97.725V254.02c4.602.941 9.464 1.41 14.75 1.41 20.967 0 31.836-7.247 41.426-13.64 8.615-5.744 15.42-10.281 30.331-10.281 14.913 0 21.718 4.537 30.333 10.281 9.59 6.393 20.459 13.64 41.427 13.64s31.838-7.247 41.428-13.64c8.616-5.744 15.421-10.281 30.334-10.281 14.914 0 21.72 4.537 30.336 10.281 9.591 6.394 20.461 13.64 41.43 13.64 5.288 0 10.152-.47 14.755-1.411v46.633H217.129c-5.523 0-10 4.477-10 10s4.477 10 10 10h234.223c5.478 0 9.934 4.457 9.934 9.934v34.459z" fill="#000000" opacity="1" data-original="#000000" class=""></path><path d="M97.53 456.539a10.098 10.098 0 0 0-1.49-3.6c-.37-.54-.78-1.05-1.25-1.52a10.153 10.153 0 0 0-3.24-2.16c-.6-.25-1.23-.44-1.87-.57-3.25-.65-6.7.41-9.03 2.73-.46.47-.88.98-1.24 1.52a10.098 10.098 0 0 0-1.49 3.6c-.13.65-.19 1.3-.19 1.96a9.913 9.913 0 0 0 .76 3.82c.25.6.56 1.18.92 1.73.36.54.78 1.05 1.24 1.52 1.86 1.86 4.44 2.93 7.08 2.93a10.098 10.098 0 0 0 3.82-.77 10.146 10.146 0 0 0 3.24-2.16c.47-.47.88-.98 1.25-1.52a10.098 10.098 0 0 0 1.69-5.55c0-.66-.07-1.309-.2-1.96zM205.01 426.639a10.098 10.098 0 0 0-1.49-3.6c-.37-.54-.79-1.06-1.25-1.52a9.57 9.57 0 0 0-1.52-1.24c-.54-.36-1.12-.67-1.72-.92-.61-.25-1.24-.44-1.87-.57a9.898 9.898 0 0 0-3.91 0c-.64.13-1.27.32-1.87.57-.61.25-1.19.56-1.73.92-.55.36-1.06.78-1.52 1.24-.46.46-.88.98-1.24 1.52a10.098 10.098 0 0 0-1.69 5.55 10.098 10.098 0 0 0 1.69 5.56c.36.54.78 1.06 1.24 1.52.46.46.97.87 1.52 1.24.54.36 1.12.67 1.73.92a10.098 10.098 0 0 0 3.82.77c.65 0 1.31-.07 1.96-.2.63-.13 1.26-.32 1.87-.57a10.146 10.146 0 0 0 3.24-2.16c.46-.46.88-.98 1.25-1.52a10.098 10.098 0 0 0 1.49-3.6c.13-.65.19-1.3.19-1.96 0-.65-.06-1.3-.19-1.95zM320.62 456.539a10.098 10.098 0 0 0-1.49-3.6c-.36-.54-.78-1.05-1.24-1.52-.46-.46-.97-.87-1.52-1.24a9.87 9.87 0 0 0-1.73-.92c-.6-.25-1.23-.44-1.87-.57a9.898 9.898 0 0 0-3.91 0c-.63.13-1.26.32-1.87.57a10.146 10.146 0 0 0-3.24 2.16c-.46.47-.88.98-1.25 1.52a10.098 10.098 0 0 0-1.49 3.6c-.13.65-.19 1.3-.19 1.96a9.913 9.913 0 0 0 .76 3.82c.25.6.56 1.18.92 1.73.37.54.79 1.06 1.25 1.52.46.46.97.88 1.52 1.24.54.36 1.12.67 1.72.92.61.25 1.24.44 1.87.57.65.13 1.31.2 1.96.2 2.63 0 5.21-1.07 7.07-2.93.46-.46.88-.98 1.24-1.52a10.098 10.098 0 0 0 1.69-5.55c0-.66-.07-1.31-.2-1.96zM434.08 432.62a10.098 10.098 0 0 0-1.49-3.6c-.36-.54-.78-1.06-1.24-1.52a10.093 10.093 0 0 0-7.07-2.93 10.1 10.1 0 0 0-7.08 2.93c-.46.46-.87.98-1.24 1.52a10.098 10.098 0 0 0-1.49 3.6c-.13.64-.19 1.3-.19 1.95 0 .66.06 1.31.19 1.96.13.64.32 1.27.57 1.87.25.6.56 1.18.92 1.72.37.55.78 1.06 1.24 1.53.47.46.98.87 1.52 1.24a10.098 10.098 0 0 0 3.6 1.49 10.066 10.066 0 0 0 9.03-2.73c.46-.47.88-.98 1.24-1.53.36-.54.67-1.12.92-1.72.25-.61.44-1.23.57-1.87.13-.65.2-1.3.2-1.96 0-.651-.07-1.31-.2-1.95zM334.58 269.159c-.13-.63-.32-1.26-.57-1.87-.25-.6-.56-1.18-.92-1.72-.37-.55-.79-1.06-1.25-1.52a9.63 9.63 0 0 0-1.52-1.25c-.54-.36-1.12-.67-1.72-.92-.61-.25-1.24-.44-1.87-.57a9.898 9.898 0 0 0-3.91 0c-.64.13-1.27.32-1.87.57a9.87 9.87 0 0 0-3.25 2.17c-.46.46-.88.97-1.24 1.52-.36.54-.67 1.12-.92 1.72-.25.61-.44 1.24-.57 1.87-.13.65-.2 1.31-.2 1.96a10.098 10.098 0 0 0 1.69 5.55c.36.55.78 1.06 1.24 1.52.46.46.97.88 1.52 1.24.54.36 1.12.67 1.73.92a10.098 10.098 0 0 0 3.82.77c.65 0 1.31-.07 1.96-.2.63-.13 1.26-.32 1.87-.57.6-.25 1.18-.56 1.72-.92a9.57 9.57 0 0 0 1.52-1.24c.46-.46.88-.97 1.25-1.52a10.098 10.098 0 0 0 1.49-3.6c.13-.64.19-1.3.19-1.95 0-.65-.06-1.31-.19-1.96zM204.01 255.54a10.098 10.098 0 0 0-1.49-3.6c-.36-.54-.78-1.06-1.24-1.52-.46-.46-.98-.88-1.52-1.24a10.098 10.098 0 0 0-3.6-1.49 9.898 9.898 0 0 0-3.91 0 10.098 10.098 0 0 0-3.6 1.49c-.54.36-1.05.78-1.52 1.24-.46.46-.87.98-1.24 1.52a10.098 10.098 0 0 0-1.49 3.6c-.13.65-.19 1.3-.19 1.96a9.913 9.913 0 0 0 .76 3.82c.25.6.56 1.18.92 1.73.37.54.78 1.05 1.24 1.52.47.46.98.87 1.52 1.24a10.098 10.098 0 0 0 5.56 1.69 10.098 10.098 0 0 0 5.55-1.69c.54-.37 1.06-.78 1.52-1.24.46-.47.87-.98 1.24-1.52a10.098 10.098 0 0 0 1.49-3.6c.13-.65.19-1.3.19-1.95 0-.661-.06-1.311-.19-1.96z" fill="#000000" opacity="1" data-original="#000000" class=""></path></g></svg>