<svg xmlns="http://www.w3.org/2000/svg" version="1.1" xmlns:xlink="http://www.w3.org/1999/xlink" xmlns:svgjs="http://svgjs.com/svgjs" width="512" height="512" x="0" y="0" viewBox="0 0 512 512" style="enable-background:new 0 0 512 512" xml:space="preserve" class=""><g><path d="M395 242.75h-76c-27.57 0-50-22.43-50-50v-76c0-27.57 22.43-50 50-50h76c27.57 0 50 22.43 50 50v76c0 27.57-22.43 50-50 50zm-76-156c-16.54 0-30 13.46-30 30v76c0 16.54 13.46 30 30 30h76c16.54 0 30-13.46 30-30v-76c0-16.54-13.46-30-30-30zM395 445.25h-76c-27.57 0-50-22.43-50-50v-76c0-27.57 22.43-50 50-50h76c27.57 0 50 22.43 50 50v76c0 27.57-22.43 50-50 50zm-76-156c-16.54 0-30 13.46-30 30v76c0 16.54 13.46 30 30 30h76c16.54 0 30-13.46 30-30v-76c0-16.54-13.46-30-30-30zM193 445.25h-76c-27.57 0-50-22.43-50-50v-76c0-27.57 22.43-50 50-50h76c27.57 0 50 22.43 50 50v76c0 27.57-22.43 50-50 50zm-76-156c-16.54 0-30 13.46-30 30v76c0 16.54 13.46 30 30 30h76c16.54 0 30-13.46 30-30v-76c0-16.54-13.46-30-30-30zM155 242.75c-48.52 0-88-39.48-88-88s39.48-88 88-88 88 39.48 88 88-39.48 88-88 88zm0-156c-37.5 0-68 30.5-68 68s30.5 68 68 68 68-30.5 68-68-30.5-68-68-68z" fill="#ffffff" data-original="#000000" opacity="1" class=""></path></g></svg>