<svg xmlns="http://www.w3.org/2000/svg" version="1.1" xmlns:xlink="http://www.w3.org/1999/xlink" xmlns:svgjs="http://svgjs.com/svgjs" width="512" height="512" x="0" y="0" viewBox="0 0 464.98 464.979" style="enable-background:new 0 0 512 512" xml:space="preserve" class=""><g><path d="m439.577 11.475-107.13 25.373L337.432 0H123.649l5.49 36.055-103.784-24.58c-8.958-2.12-13.07 2.921-9.185 11.275l164.763 353.562 6.209 40.799h-66.857c-9.213 0-16.675 7.471-16.675 16.676v2.829c0 9.209 7.462 16.667 16.675 16.667h185.239a92.316 92.316 0 0 0 45.047 11.697c51.327 0 93.085-41.758 93.085-93.085s-41.758-93.084-93.085-93.084c-6.993 0-13.785.842-20.346 2.316L448.838 22.788c3.847-8.368-.304-13.433-9.261-11.313zM57.551 54.959l77.253 18.3.529.126 12.96 88.474 16.65 113.684L57.551 54.959zm293.021 247.403c38.407 0 69.533 31.125 69.533 69.532 0 35.626-26.81 64.948-61.346 69.004-2.693.325-5.414.529-8.188.529-21.114 0-40.006-9.458-52.753-24.317-6.02-7.005-10.681-15.208-13.546-24.24a69.341 69.341 0 0 1-3.237-20.976c0-25.928 14.23-48.497 35.265-60.456 10.123-5.75 21.797-9.076 34.272-9.076zm-48.698-26.818 29.607-202.158 77.784-18.426-107.391 220.584z" fill="#ffffff" data-original="#000000" opacity="1" class=""></path><path d="m315.243 352.07 19.82 19.816-19.82 19.817c-4.284 4.279-4.284 11.225 0 15.508a10.967 10.967 0 0 0 15.517 0l19.812-19.816 19.817 19.816c4.283 4.288 11.225 4.288 15.509 0 4.292-4.283 4.292-11.229 0-15.508l-19.81-19.817 19.81-19.816c4.292-4.28 4.292-11.225 0-15.509-4.284-4.288-11.226-4.288-15.509 0l-19.817 19.816-19.812-19.816a10.967 10.967 0 0 0-15.517 0c-4.285 4.285-4.285 11.229 0 15.509z" fill="#ffffff" data-original="#000000" opacity="1" class=""></path></g></svg>