<svg xmlns="http://www.w3.org/2000/svg" version="1.1" xmlns:xlink="http://www.w3.org/1999/xlink" xmlns:svgjs="http://svgjs.com/svgjs" width="512" height="512" x="0" y="0" viewBox="0 0 512 512" style="enable-background:new 0 0 512 512" xml:space="preserve" class=""><g><path d="M452.75 161.64V61.76c0-23.43-19.07-42.5-42.5-42.5h-308.5c-23.43 0-42.5 19.07-42.5 42.5v99.88c-18.04 7.58-30.75 25.43-30.75 46.19v234.82c0 27.62 22.47 50.09 50.09 50.09h354.82c27.62 0 50.09-22.47 50.09-50.09V207.83c0-20.77-12.7-38.61-30.75-46.19zM84.25 61.76c0-9.65 7.85-17.5 17.5-17.5h308.5c9.65 0 17.5 7.85 17.5 17.5v107.12c0 9.65-7.85 17.5-17.5 17.5h-308.5c-9.65 0-17.5-7.85-17.5-17.5zM256 357.72c-17.91 0-32.48-14.57-32.48-32.48s14.57-32.48 32.48-32.48 32.48 14.57 32.48 32.48-14.57 32.48-32.48 32.48zm-125.81-62.46c11.72 4.91 19.98 16.49 19.98 29.98s-8.26 25.07-19.98 29.98v-59.95zm-25 106.87H53.5V248.34h51.69zM53.5 442.65v-15.52h64.19c6.9 0 12.5-5.6 12.5-12.5v-33.3c25.7-5.72 44.98-28.69 44.98-56.1s-19.28-50.37-44.98-56.1v-33.3c0-6.9-5.6-12.5-12.5-12.5H53.5v-15.51c0-8.24 4.01-15.55 10.16-20.12 6.96 14.01 21.41 23.67 38.09 23.67H243.5v57.76c-25.7 5.72-44.98 28.69-44.98 56.1s19.28 50.37 44.98 56.1v86.41H78.59c-13.83 0-25.09-11.26-25.09-25.09zm379.91 25.09H268.5v-86.41c25.7-5.72 44.98-28.69 44.98-56.1s-19.28-50.37-44.98-56.1v-57.76h141.75c16.68 0 31.13-9.66 38.09-23.67 6.15 4.57 10.16 11.88 10.16 20.12v15.51h-64.19c-6.9 0-12.5 5.6-12.5 12.5v33.3c-25.7 5.72-44.98 28.69-44.98 56.1s19.28 50.37 44.98 56.1v33.3c0 6.9 5.6 12.5 12.5 12.5h64.19v15.52c0 13.83-11.26 25.09-25.09 25.09zm25.09-65.61h-51.69V248.34h51.69zm-76.69-46.92c-11.72-4.91-19.98-16.49-19.98-29.98s8.26-25.07 19.98-29.98v59.95z" fill="#ffffff" data-original="#000000" class="" opacity="1"></path><path d="M158.89 151.99c1.73 5.06 6.48 8.46 11.83 8.46s10.1-3.4 11.83-8.46l10.43-30.58 10.43 30.58c1.73 5.06 6.48 8.46 11.83 8.46s10.1-3.4 11.83-8.46l22.26-65.26c2.23-6.53-1.26-13.64-7.79-15.87-6.54-2.23-13.64 1.26-15.87 7.79l-10.43 30.58-10.43-30.58c-1.73-5.06-6.48-8.46-11.83-8.46s-10.1 3.4-11.83 8.46l-10.43 30.58-10.43-30.58c-2.23-6.53-9.33-10.02-15.87-7.79-6.53 2.23-10.02 9.33-7.79 15.87zM269.54 160.45c6.9 0 12.5-5.6 12.5-12.5V82.69c0-6.9-5.6-12.5-12.5-12.5s-12.5 5.6-12.5 12.5v65.26c0 6.9 5.6 12.5 12.5 12.5zM305.54 160.45c6.9 0 12.5-5.6 12.5-12.5v-25.83l23.28 33.03c2.39 3.39 6.23 5.3 10.22 5.3 1.26 0 2.53-.19 3.78-.59a12.51 12.51 0 0 0 8.72-11.92V82.69c0-6.9-5.6-12.5-12.5-12.5s-12.5 5.6-12.5 12.5v25.83l-23.28-33.03c-3.14-4.45-8.8-6.36-13.99-4.71s-8.72 6.47-8.72 11.92v65.26c0 6.9 5.6 12.5 12.5 12.5z" fill="#ffffff" data-original="#000000" class="" opacity="1"></path></g></svg>