<svg xmlns="http://www.w3.org/2000/svg" version="1.1" xmlns:xlink="http://www.w3.org/1999/xlink" xmlns:svgjs="http://svgjs.com/svgjs" width="512" height="512" x="0" y="0" viewBox="0 0 473.198 473.198" style="enable-background:new 0 0 512 512" xml:space="preserve" class=""><g><path d="M194.893 302.313a71.342 71.342 0 0 0-8.165-.564l-32.272-.337-72.727 135.663 47.355-7.453 20.001 43.561 85.027-158.618-22.263 9.001c-1.813.737-3.653 1.105-5.458 1.105-3.396 0-6.498-1.318-8.728-3.71-2.404-2.577-3.564-6.164-3.282-10.107l.525-7.405a5.525 5.525 0 0 0-.013-1.136zM317.105 298.375c-.906-.661-1.771-1.411-2.553-2.316l-4.89-5.635a5.976 5.976 0 0 0-.793-.757 73.038 73.038 0 0 0-6.172 5.373l-26.048 25.508c-2.661 2.604-5.963 4.048-9.294 4.048-5.357 0-9.842-3.515-11.713-9.142l-2.337-7.068a5.397 5.397 0 0 0-.4-.958 84.203 84.203 0 0 0-7.246 2.492l-7.465 3.021 85.912 160.257 20.001-43.561 47.355 7.454-74.357-138.716zM192.504 230.447a81.856 81.856 0 0 0 17.226 8.322c8.438 2.921 17.448 4.584 26.864 4.584s18.437-1.663 26.864-4.584a81.354 81.354 0 0 0 17.224-8.322c22.998-14.639 38.331-40.294 38.331-69.523 0-45.454-36.973-82.429-82.427-82.429s-82.429 36.975-82.429 82.429c.014 29.22 15.346 54.884 38.347 69.523z" fill="#000000" data-original="#000000" class=""></path><path d="M92.373 164.535c1.619 4.013 3.236 9.117 3.559 11.415.321 2.3-2.727 5.268-6.833 6.625l-7.063 2.342c-4.105 1.356-4.979 4.959-1.955 8.053l25.505 26.054c3.021 3.086 6.51 7.302 7.763 9.422 1.258 2.12-.353 6.129-3.619 8.964l-5.634 4.894c-3.266 2.837-2.687 6.484 1.289 8.188l33.56 14.246c3.979 1.683 8.72 4.176 10.583 5.562 1.866 1.383 1.806 5.614-.134 9.478l-3.354 6.668c-1.939 3.863-.008 7.037 4.312 7.085l8.287.076 28.17.309c4.324.044 9.77.55 12.158 1.171 2.385.629 4.076 4.608 3.77 8.916l-.519 7.414c-.237 3.35 1.515 5.406 4.184 5.406.77 0 1.617-.169 2.515-.529l25.551-10.327 5.446-2.192 2.812-1.134c4.011-1.627 9.116-3.238 11.417-3.559.107-.017.232-.032.336-.032 2.248 0 4.994 2.962 6.28 6.856l2.34 7.065c.817 2.457 2.437 3.759 4.26 3.759 1.227 0 2.553-.597 3.796-1.803l26.06-25.504c3.082-3.021 7.298-6.512 9.414-7.767.376-.224.865-.284 1.342-.332.145-.012.245-.092.389-.092 2.173 0 5.054 1.534 7.229 4.043l4.894 5.635c1.226 1.426 2.621 2.124 3.939 2.124 1.703 0 3.29-1.158 4.239-3.415l14.242-33.554c1.688-3.979 4.18-8.716 5.559-10.588.678-.905 2.023-1.351 3.699-1.351 1.739 0 3.814.501 5.795 1.487l6.676 3.35c1.018.518 1.992.762 2.869.762 2.453 0 4.168-1.888 4.208-5.069l.381-36.456c.056-4.324.553-9.774 1.183-12.159.581-2.2 3.995-3.811 7.902-3.811.341 0 .677.008 1.014.042l7.414.525c.204.016.396.024.597.024 3.911 0 5.819-2.908 4.28-6.721l-13.665-33.805c-1.615-4.009-3.234-9.115-3.555-11.415-.325-2.3 2.729-5.268 6.828-6.624l7.069-2.339c4.104-1.36 4.978-4.963 1.955-8.057l-25.507-26.054c-3.018-3.086-6.508-7.302-7.767-9.417-1.254-2.124.353-6.133 3.619-8.967l5.635-4.891c3.266-2.833 2.692-6.494-1.287-8.187l-33.554-14.249c-3.979-1.691-8.725-4.178-10.588-5.558-1.855-1.385-1.804-5.625.137-9.483l3.35-6.673c1.939-3.865.008-7.035-4.308-7.073l-36.451-.395c-4.324-.046-9.771-.549-12.163-1.176-2.385-.629-4.067-4.609-3.763-8.917l.521-7.414C271.224 2.065 269.473 0 266.808 0c-.777 0-1.619.172-2.517.533l-33.805 13.662c-4.013 1.617-9.115 3.233-11.415 3.556-.11.016-.23.024-.336.024-2.246 0-4.996-2.953-6.284-6.854l-2.338-7.065c-.815-2.457-2.433-3.753-4.262-3.753-1.226 0-2.553.587-3.791 1.799l-26.066 25.497c-3.082 3.021-7.297 6.506-9.417 7.763-.487.29-1.078.433-1.737.433-2.172 0-5.056-1.533-7.229-4.043l-4.891-5.634c-1.23-1.423-2.621-2.12-3.939-2.12-1.703 0-3.29 1.16-4.24 3.404l-14.248 33.562c-1.688 3.979-4.178 8.72-5.559 10.58-.673.914-2.023 1.361-3.69 1.361-1.741 0-3.821-.505-5.799-1.495l-6.675-3.351c-1.02-.509-1.993-.755-2.871-.755-2.448 0-4.17 1.888-4.208 5.065l-.385 36.458c-.05 4.326-.551 9.774-1.18 12.163-.579 2.196-3.994 3.805-7.905 3.805-.336 0-.673-.008-1.012-.038l-7.414-.525a6.663 6.663 0 0 0-.593-.026c-3.909 0-5.818 2.906-4.278 6.719l13.649 33.81zM236.6 62.786c54.201 0 98.13 43.934 98.13 98.13 0 35.273-18.666 66.101-46.594 83.395-6.772 4.188-14.038 7.65-21.765 10.114a97.908 97.908 0 0 1-29.771 4.621 98.173 98.173 0 0 1-29.767-4.621c-7.732-2.464-14.996-5.927-21.762-10.106-27.932-17.294-46.601-48.129-46.601-83.395 0-54.196 43.933-98.138 98.13-98.138z" fill="#000000" data-original="#000000" class=""></path></g></svg>