<svg xmlns="http://www.w3.org/2000/svg" version="1.1" xmlns:xlink="http://www.w3.org/1999/xlink" xmlns:svgjs="http://svgjs.com/svgjs" width="512" height="512" x="0" y="0" viewBox="0 0 512 512" style="enable-background:new 0 0 512 512" xml:space="preserve" class=""><g><path d="M219.366 215.834 151.1 147.567a8.523 8.523 0 0 0-12.066 0 8.525 8.525 0 0 0 0 12.066L207.3 227.9a8.51 8.51 0 0 0 6.033 2.5 8.509 8.509 0 0 0 6.033-2.5 8.523 8.523 0 0 0 0-12.066z" fill="#000000" data-original="#000000" class=""></path><path d="M219.366 147.567a8.523 8.523 0 0 0-12.066 0l-68.267 68.267a8.525 8.525 0 0 0 0 12.066c1.664 1.664 3.849 2.5 6.033 2.5s4.369-.836 6.033-2.5l68.267-68.267a8.523 8.523 0 0 0 0-12.066zM372.966 420.634 338.833 386.5a8.523 8.523 0 0 0-12.066 0 8.525 8.525 0 0 0 0 12.066L360.9 432.7a8.51 8.51 0 0 0 6.033 2.5 8.509 8.509 0 0 0 6.033-2.5 8.523 8.523 0 0 0 0-12.066z" fill="#000000" data-original="#000000" class=""></path><path d="M372.966 386.5a8.523 8.523 0 0 0-12.066 0l-34.133 34.133a8.525 8.525 0 0 0 0 12.066 8.51 8.51 0 0 0 6.033 2.5 8.509 8.509 0 0 0 6.033-2.5l34.133-34.133a8.523 8.523 0 0 0 0-12.066zM187.733 349.867c-18.825 0-34.133 15.309-34.133 34.133 0 18.825 15.309 34.133 34.133 34.133s34.133-15.309 34.133-34.133c.001-18.825-15.308-34.133-34.133-34.133zm0 51.2c-9.412 0-17.067-7.654-17.067-17.067 0-9.412 7.654-17.067 17.067-17.067S204.8 374.588 204.8 384c0 9.412-7.654 17.067-17.067 17.067zM324.267 281.6c-18.825 0-34.133 15.309-34.133 34.133 0 18.825 15.309 34.133 34.133 34.133s34.133-15.309 34.133-34.133c0-18.824-15.309-34.133-34.133-34.133zm0 51.2c-9.412 0-17.067-7.654-17.067-17.067 0-9.412 7.654-17.067 17.067-17.067s17.067 7.654 17.067 17.067c-.001 9.413-7.655 17.067-17.067 17.067zM315.733 162.133a8.53 8.53 0 0 0-8.533 8.533c0 65.877-53.589 119.467-119.467 119.467-4.71 0-8.533 3.814-8.533 8.533s3.823 8.533 8.533 8.533c75.281 0 136.533-61.252 136.533-136.533a8.53 8.53 0 0 0-8.533-8.533z" fill="#000000" data-original="#000000" class=""></path><path d="m355.9 198.767-34.133-34.133a8.523 8.523 0 0 0-12.066 0l-34.133 34.133a8.523 8.523 0 0 0 0 12.066 8.523 8.523 0 0 0 12.066 0l28.1-28.1 28.1 28.1a8.51 8.51 0 0 0 6.033 2.5 8.509 8.509 0 0 0 6.033-2.5 8.525 8.525 0 0 0 0-12.066zM328.277 25.6H306.44c-6.349 0-12.416-3.089-16.23-8.269C282.223 6.485 269.431 0 256 0c-13.431 0-26.223 6.485-34.21 17.331-3.814 5.18-9.882 8.269-16.23 8.269h-21.837c-16.614 0-30.123 13.517-30.123 30.123V102.4a8.53 8.53 0 0 0 8.533 8.533h187.733a8.53 8.53 0 0 0 8.533-8.533V55.723C358.4 39.117 344.892 25.6 328.277 25.6zm13.056 68.267H170.667V55.723c0-7.194 5.862-13.056 13.056-13.056h21.837c11.75 0 22.955-5.683 29.978-15.215 4.855-6.605 12.314-10.385 20.463-10.385 8.149 0 15.607 3.78 20.471 10.385 7.014 9.532 18.219 15.215 29.969 15.215h21.837c7.194 0 13.056 5.862 13.056 13.056v38.144z" fill="#000000" data-original="#000000" class=""></path><path d="M409.6 42.667h-59.733a8.53 8.53 0 0 0-8.533 8.533v42.667H170.667V51.2a8.53 8.53 0 0 0-8.533-8.533H102.4c-23.526 0-42.667 19.14-42.667 42.667v384C59.733 492.86 78.874 512 102.4 512h307.2c23.526 0 42.667-19.14 42.667-42.667v-384c0-23.526-19.141-42.666-42.667-42.666zm25.6 426.666c0 14.114-11.486 25.6-25.6 25.6H102.4c-14.114 0-25.6-11.486-25.6-25.6v-384c0-14.114 11.486-25.6 25.6-25.6h51.2V102.4a8.53 8.53 0 0 0 8.533 8.533h187.733a8.53 8.53 0 0 0 8.533-8.533V59.733h51.2c14.114 0 25.6 11.486 25.6 25.6v384z" fill="#000000" data-original="#000000" class=""></path><path d="M392.533 76.8h-42.667a8.53 8.53 0 0 0-8.533 8.533v8.533H170.667v-8.533a8.53 8.53 0 0 0-8.533-8.533h-42.667c-14.114 0-25.6 11.486-25.6 25.6v349.867c0 14.114 11.486 25.6 25.6 25.6h273.067c14.114 0 25.6-11.486 25.6-25.6V102.4c-.001-14.114-11.487-25.6-25.601-25.6zm8.534 375.467c0 4.71-3.831 8.533-8.533 8.533H119.467c-4.702 0-8.533-3.823-8.533-8.533V102.4c0-4.71 3.831-8.533 8.533-8.533H153.6v8.533a8.53 8.53 0 0 0 8.533 8.533h187.733a8.53 8.53 0 0 0 8.533-8.533v-8.533h34.133c4.702 0 8.533 3.823 8.533 8.533v349.867z" fill="#000000" data-original="#000000" class=""></path><path d="M264.576 34.133h-17.152c-9.387 0-17.024 7.637-17.024 17.024v17.152c0 9.387 7.637 17.024 17.024 17.024h17.152c9.387 0 17.024-7.637 17.024-17.024V51.157c0-9.386-7.637-17.024-17.024-17.024zm-17.109 34.176-.043-17.109 17.109-.043.009 17.109-17.075.043z" fill="#000000" data-original="#000000" class=""></path></g></svg>