<svg xmlns="http://www.w3.org/2000/svg" version="1.1" xmlns:xlink="http://www.w3.org/1999/xlink" xmlns:svgjs="http://svgjs.com/svgjs" width="512" height="512" x="0" y="0" viewBox="0 0 496.013 496.013" style="enable-background:new 0 0 512 512" xml:space="preserve" class=""><g><path d="m271.942 209.614 66.483-95.148-80.902-75.44-112.981 40.631 3.761 106.478zM228.868 402.407l60.842 63.37 106.274-45.368 17.356-93.898-105.496-12.989z" fill="#ffffff" data-original="#000000" class="" opacity="1"></path><path d="m15.731 336.798 1.343 1.644c36.151 92.23 125.889 157.571 230.934 157.571 136.976 0 248.006-111.029 248.006-248.007C496.013 111.036 384.983 0 248.007 0 111.036 0 0 111.043 0 248.006c0 30.668 5.604 60.026 15.785 87.145l-.054 1.647zm-2.801-88.792c0-31.32 6.209-61.204 17.38-88.564l58.667-72.789 15.206-24.383c39.792-30.883 89.68-49.339 143.833-49.339 1.302 0 2.583.08 3.893.094l26.236 9.664 57.827 7.379c37.029 15.002 69.417 39.15 94.312 69.671l-9.63 41.932 37.994 107.148 24.272 6.148c-3.727 126.418-107.619 228.106-234.905 228.106-63.375 0-120.926-25.247-163.249-66.159l45.626-39.192-43.543-112.237-68.128-23.465-1.575 50.047c-2.726-14.27-4.216-28.99-4.216-44.061z" fill="#ffffff" data-original="#000000" class="" opacity="1"></path></g></svg>