<svg xmlns="http://www.w3.org/2000/svg" version="1.1" xmlns:xlink="http://www.w3.org/1999/xlink" xmlns:svgjs="http://svgjs.com/svgjs" width="512" height="512" x="0" y="0" viewBox="0 0 512 512" style="enable-background:new 0 0 512 512" xml:space="preserve" class=""><g><path d="M449.95 324.72c1.81-4.71 2.8-9.82 2.8-15.16V202.44c0-5.34-1-10.45-2.8-15.16l7.59-15.21c8.01-16.04 6.36-34.97-4.3-49.4-10.67-14.42-28.29-21.55-45.97-18.59l-56.34 9.4c-9.28 1.55-18.62-2.91-23.25-11.1l-30.36-53.79c-8.53-15.1-23.97-24.12-41.32-24.12s-32.79 9.02-41.32 24.12l-30.36 53.79c-4.63 8.19-13.97 12.65-23.25 11.1l-56.34-9.4c-17.69-2.96-35.3 4.17-45.97 18.59-10.66 14.43-12.31 33.36-4.3 49.4l7.59 15.21c-1.81 4.71-2.8 9.82-2.8 15.16v107.12c0 5.34 1 10.45 2.8 15.16l-7.59 15.21c-8.01 16.04-6.36 34.97 4.3 49.4 10.67 14.42 28.29 21.55 45.97 18.59l56.34-9.4c9.28-1.56 18.62 2.91 23.25 11.1l30.36 53.79c8.53 15.1 23.97 24.12 41.32 24.12s32.79-9.02 41.32-24.12l30.36-53.79c4.63-8.19 13.97-12.66 23.25-11.1l56.34 9.4c17.69 2.96 35.3-4.17 45.97-18.59 10.66-14.43 12.31-33.36 4.3-49.4zm-365.7-15.16V202.44c0-9.65 7.85-17.5 17.5-17.5h308.5c9.65 0 17.5 7.85 17.5 17.5v107.12c0 9.65-7.85 17.5-17.5 17.5h-308.5c-9.65 0-17.5-7.85-17.5-17.5zm-5.38-172.03c5.12-6.92 13.25-10.21 21.75-8.79l56.33 9.4c2.59.44 5.19.65 7.76.65 16.9 0 32.9-9.1 41.38-24.13l30.36-53.78c4.03-7.15 11.34-11.41 19.55-11.41s15.52 4.26 19.55 11.41l30.36 53.78c9.78 17.32 29.53 26.76 49.14 23.48l56.33-9.4c8.51-1.42 16.63 1.87 21.75 8.79 5.13 6.93 5.89 15.67 2.04 23.38l-2.67 5.34c-6.48-4-14.1-6.31-22.25-6.31h-308.5c-8.15 0-15.78 2.31-22.25 6.31l-2.67-5.34c-3.85-7.71-3.09-16.45 2.04-23.38zm354.26 236.94c-5.12 6.92-13.25 10.21-21.75 8.79l-56.33-9.4c-19.62-3.28-39.36 6.16-49.14 23.48l-30.36 53.78c-4.03 7.15-11.34 11.41-19.55 11.41s-15.52-4.26-19.55-11.41l-30.36-53.78c-8.48-15.03-24.48-24.13-41.38-24.13-2.57 0-5.17.21-7.76.65l-56.33 9.4c-8.5 1.42-16.63-1.87-21.75-8.79-5.13-6.93-5.89-15.67-2.04-23.38l2.66-5.34c6.48 4 14.1 6.31 22.25 6.31h308.51c8.15 0 15.78-2.31 22.25-6.31l2.67 5.34c3.85 7.71 3.09 16.45-2.04 23.38z" fill="#ffffff" data-original="#000000" opacity="1" class=""></path><path d="M342.61 306.13h37.03c6.9 0 12.5-5.6 12.5-12.5s-5.6-12.5-12.5-12.5h-24.53V268.5h17.96c6.9 0 12.5-5.6 12.5-12.5s-5.6-12.5-12.5-12.5h-17.96v-12.63h24.53c6.9 0 12.5-5.6 12.5-12.5s-5.6-12.5-12.5-12.5h-37.03c-6.9 0-12.5 5.6-12.5 12.5v75.26c0 6.9 5.6 12.5 12.5 12.5zM212.31 306.13c19.48 0 35.33-15.85 35.33-35.33v-29.59c0-19.48-15.85-35.33-35.33-35.33s-35.33 15.85-35.33 35.33v29.59c0 19.48 15.85 35.33 35.33 35.33zm-10.33-64.93c0-5.7 4.63-10.33 10.33-10.33s10.33 4.63 10.33 10.33v29.59c0 5.7-4.63 10.33-10.33 10.33s-10.33-4.63-10.33-10.33zM132.36 306.13h29.48c6.9 0 12.5-5.6 12.5-12.5s-5.6-12.5-12.5-12.5h-16.98v-62.76c0-6.9-5.6-12.5-12.5-12.5s-12.5 5.6-12.5 12.5v75.26c0 6.9 5.6 12.5 12.5 12.5zM286.55 268.28c3.52.67 10.18 2.89 10.18 6.54 0 3.42-3.59 6.31-7.85 6.31-3.79 0-6.44-2.11-7.39-4.2-2.86-6.28-10.27-9.06-16.55-6.2s-9.06 10.27-6.2 16.55c5.21 11.45 17.04 18.85 30.15 18.85 18.11 0 32.85-14.05 32.85-31.31 0-15.38-11.98-27.58-30.52-31.1-3.52-.67-10.18-2.89-10.18-6.53 0-3.42 3.59-6.32 7.85-6.32 3.78 0 6.44 2.11 7.39 4.21 2.86 6.28 10.27 9.06 16.55 6.2s9.06-10.27 6.2-16.55c-5.21-11.45-17.04-18.86-30.15-18.86-18.11 0-32.85 14.05-32.85 31.32 0 15.38 11.98 27.58 30.52 31.09z" fill="#ffffff" data-original="#000000" opacity="1" class=""></path></g></svg>