<svg xmlns="http://www.w3.org/2000/svg" version="1.1" xmlns:xlink="http://www.w3.org/1999/xlink" xmlns:svgjs="http://svgjs.com/svgjs" width="512" height="512" x="0" y="0" viewBox="0 0 320.47 320.469" style="enable-background:new 0 0 512 512" xml:space="preserve" class=""><g><path d="m51.92 262.885 7.129-9.914L61.223 256l14.77 20.521 48.326-67.196 10.022-13.93 3.063 4.264 20.466 28.457 45.558-63.342c3.795-5.281 2.597-12.635-2.693-16.434-5.273-3.787-12.627-2.599-16.434 2.683l-21.438 29.797-5.001 6.953-1.522-2.12-22.005-30.586-58.342 81.128-16.943-23.552-35.498 49.352V37.201H0v266.913h290.462v-23.552H39.207l12.713-17.677zM250.561 16.356c-38.548 0-69.91 31.362-69.91 69.91 0 38.545 31.362 69.91 69.91 69.91 38.547 0 69.909-31.364 69.909-69.91 0-38.548-31.363-69.91-69.909-69.91zm42.418 88.554c-2.376-1.176-5.013-1.901-7.851-1.901-9.842 0-17.833 7.985-17.833 17.829 0 2.827.722 5.472 1.896 7.851a46.121 46.121 0 0 1-18.639 3.923 46.134 46.134 0 0 1-18.643-3.932c1.162-2.376 1.892-5.015 1.892-7.842 0-9.844-7.994-17.829-17.825-17.829-2.837 0-5.474.725-7.85 1.894a46.182 46.182 0 0 1-3.924-18.645c0-6.636 1.411-12.93 3.924-18.645 2.376 1.168 5.013 1.894 7.85 1.894 9.847 0 17.825-7.985 17.825-17.833 0-2.823-.729-5.462-1.892-7.842 5.719-2.511 12.003-3.931 18.643-3.931 6.641 0 12.925 1.42 18.639 3.925-1.174 2.38-1.896 5.017-1.896 7.848 0 9.849 7.991 17.833 17.833 17.833 2.838 0 5.475-.726 7.851-1.902 2.513 5.715 3.939 12.01 3.939 18.645 0 6.632-1.41 12.952-3.939 18.66z" fill="#ffffff" data-original="#000000" class="" opacity="1"></path><path d="M250.561 68.437c9.85 0 17.825 7.981 17.825 17.829 0 9.846-7.976 17.827-17.825 17.827-9.851 0-17.825-7.981-17.825-17.827-.001-9.849 7.974-17.829 17.825-17.829z" fill="#ffffff" data-original="#000000" class="" opacity="1"></path></g></svg>