<svg xmlns="http://www.w3.org/2000/svg" version="1.1" xmlns:xlink="http://www.w3.org/1999/xlink" xmlns:svgjs="http://svgjs.com/svgjs" width="512" height="512" x="0" y="0" viewBox="0 0 304.769 304.769" style="enable-background:new 0 0 512 512" xml:space="preserve" class=""><g><path d="M234.859 134.858c-16.398 0-31.463 5.719-43.385 15.21-.032-2.216-.657-4.455-1.976-6.432l-25.567-38.233-15.238 22.792-6.632 9.921-18.598-27.806-35.649-53.312-12.72 19.017-3.027 4.535-8.502-12.708-16.464-24.636V30.098H23.552v31.4H0V85.05h23.552v23.552H0v23.549h23.552v23.552H0v23.551h23.552v23.552H0v23.552h23.552v31.398h23.549V85.575l24.966 37.339 15.747-23.552 54.247 81.118 21.871-32.713 5.987 8.949c2.268 3.402 6.007 5.217 9.81 5.217-9.229 11.847-14.779 26.689-14.779 42.828 0 38.543 31.362 69.909 69.91 69.909 38.547 0 69.909-31.366 69.909-69.909 0-38.547-31.363-69.903-69.91-69.903zm42.418 88.554c-2.376-1.166-5.013-1.892-7.851-1.892-9.842 0-17.833 7.979-17.833 17.829 0 2.829.722 5.466 1.896 7.843a46.047 46.047 0 0 1-18.638 3.935 46.096 46.096 0 0 1-18.643-3.935c1.162-2.377 1.891-5.014 1.891-7.843 0-9.851-7.994-17.829-17.824-17.829-2.838 0-5.475.726-7.851 1.892a46.173 46.173 0 0 1-3.924-18.643 46.17 46.17 0 0 1 3.924-18.646c2.376 1.166 5.013 1.896 7.851 1.896 9.846 0 17.824-7.983 17.824-17.833 0-2.829-.729-5.467-1.891-7.843a46.096 46.096 0 0 1 37.281 0c-1.174 2.376-1.896 5.014-1.896 7.843 0 9.85 7.991 17.833 17.833 17.833 2.838 0 5.475-.729 7.851-1.896a46.126 46.126 0 0 1 3.939 18.646 45.828 45.828 0 0 1-3.939 18.643z" fill="#ffffff" data-original="#000000" class="" opacity="1"></path><path d="M234.859 186.937c9.85 0 17.824 7.986 17.824 17.833 0 9.842-7.975 17.829-17.824 17.829-9.851 0-17.825-7.987-17.825-17.829 0-9.847 7.975-17.833 17.825-17.833z" fill="#ffffff" data-original="#000000" class="" opacity="1"></path></g></svg>