<?xml version="1.0" encoding="UTF-8"?>
<!DOCTYPE svg PUBLIC "-//W3C//DTD SVG 1.1//EN" "http://www.w3.org/Graphics/SVG/1.1/DTD/svg11.dtd">
<!-- Creator: CorelDRAW -->
<svg xmlns="http://www.w3.org/2000/svg" xml:space="preserve" width="40mm" height="46mm" style="shape-rendering:geometricPrecision; text-rendering:geometricPrecision; image-rendering:optimizeQuality; fill-rule:evenodd; clip-rule:evenodd"
viewBox="0 0 40 46"
 xmlns:xlink="http://www.w3.org/1999/xlink">
 <defs>
  <style type="text/css">
   <![CDATA[
    .str1 {stroke:#1578BD;stroke-width:0.0762}
    .str0 {stroke:#3E3D3B;stroke-width:0.1314}
    .fil1 {fill:#FEFEFE}
    .fil0 {fill:#1578BD}
    .fil2 {fill:#E53125}
    .fil3 {fill:#F09C16}
   ]]>
  </style>
 </defs>
 <g id="Слой_x0020_1">
  <metadata id="CorelCorpID_0Corel-Layer"/>
  <g id="_220739176">
   <path id="_220733320" class="fil0" d="M17.5851 33.3985c-0.4755,0.6118 -1.1949,1.9201 -1.594,2.7581l-2.4715 0.0246c-0.525,-0.7061 -1.1899,-1.758 -1.3169,-2.6446 0.32,-0.9607 1.0743,-2.2253 1.7684,-2.7072 0.4651,-0.1259 1.6308,-0.123 2.5568,-0.0444 0.1864,0.7405 0.7172,1.868 1.0572,2.6135zm1.6502 0.227c0.4039,0.0002 0.7964,0.0037 1.2935,0.0102 0.522,0.7175 1.1508,1.8836 1.5468,2.6841l-0.1908 0.3755c-0.3761,0.7174 -0.8323,1.3861 -1.4446,1.9234 -0.2973,0.1469 -2.1158,0.1466 -2.4124,0 -0.6123,-0.5374 -1.0692,-1.2059 -1.4447,-1.9234l-0.1908 -0.3755c0.3957,-0.8006 1.0248,-1.9665 1.5472,-2.6841 0.4969,-0.0065 0.8933,-0.0099 1.2958,-0.0102zm-8.008 0.0119l0.6873 0.0107c0.1638,1.0301 0.7832,2.0881 1.3684,2.9352 -0.2673,0.9152 -0.2153,1.521 0.2498,2.3686 -0.1435,0.0214 -0.6575,0.0783 -0.9893,0.0368 -1.0619,-1.5819 -1.5204,-3.468 -1.3162,-5.3513zm14.7091 5.3497c-0.331,0.0447 -0.8549,-0.0137 -1.0011,-0.0352 0.465,-0.8476 0.5171,-1.4534 0.25,-2.3686 0.585,-0.8472 1.2049,-1.9051 1.3677,-2.9352l0.6879 -0.0107c0.2087,1.9482 -0.2587,3.7493 -1.3045,5.3497zm-5.0537 -5.5886c0.3405,-0.7455 0.8711,-1.8729 1.0569,-2.6135 0.9274,-0.0786 2.0923,-0.0815 2.5571,0.0444 0.6942,0.4819 1.4487,1.7466 1.7689,2.7072 -0.1272,0.8866 -0.7924,1.9385 -1.3172,2.6447l-2.4719 -0.0247c-0.3988,-0.8374 -1.1188,-2.147 -1.5938,-2.7581z"/>
   <path id="_220733296" class="fil1 str0" d="M19.2354 29.0572c0.5088,0.1758 1.6879,1.0556 2.2949,1.5336 -0.1643,0.7693 -0.6691,1.8407 -1.0282,2.6173l-2.537 -0.0001c-0.3584,-0.7766 -0.8632,-1.8479 -1.0269,-2.6172 0.6059,-0.4781 1.7888,-1.3577 2.2972,-1.5336zm7.349 2.15c0.3023,0.6749 0.5148,1.3985 0.6215,2.1554l-0.6929 0.047c-0.3137,-0.9225 -0.8509,-2.2016 -1.6591,-2.847 0.1118,-0.4095 0.22,-1.2381 0.2045,-1.619 0.6282,0.6565 1.1458,1.4181 1.526,2.2636zm-1.8453 -2.5802c0.0182,0.3032 -0.0675,1.2976 -0.1799,1.7864 -0.737,-0.1451 -2.0701,-0.1026 -2.6717,-0.0734 -0.6874,-0.5655 -1.8903,-1.4058 -2.4448,-1.5906l0.0001 -2.1028c1.7074,-0.0527 3.7194,0.5044 5.2963,1.9804zm-11.0104 0c-0.0181,0.3032 0.0673,1.2976 0.1795,1.7864 0.7372,-0.1451 2.0707,-0.1026 2.6718,-0.0734 0.688,-0.5655 1.8901,-1.4058 2.4453,-1.5906l0.0001 -2.1028c-1.7095,-0.0527 -3.7183,0.5043 -5.2967,1.9804zm-0.3194 0.3205c-0.0142,0.3826 0.0933,1.2074 0.2051,1.6151 -0.8085,0.6455 -1.3461,1.9246 -1.6595,2.8472l-0.6936 -0.0471c0.2429,-1.7008 1.0169,-3.2304 2.148,-4.4152z"/>
   <path id="_220733656" class="fil0 str1" d="M27.4357 38.6173l0.2785 -0.5968 0.1694 0.0791c-0.1075,0.2266 -0.0049,0.1794 0.7116,0.5117 0.1135,0.0526 0.1287,-0.0014 0.173,-0.0986l0.1696 0.0789 -0.2779 0.5963 -0.1698 -0.0789c0.1086,-0.2251 0.0094,-0.1743 -0.7073,-0.5082 -0.1159,-0.0541 -0.1303,-0.0071 -0.1774,0.0957l-0.1697 -0.0792zm0.9491 -3.9155l0 -0.1375 0.4848 -0.1325 0.0523 0.1801c-0.7615,0.3971 -0.0702,1.0373 0.4564,0.6523 0.2929,-0.2141 0.1069,-0.565 -0.1304,-0.7319l0.1115 -0.1499c1.1408,0.8346 -0.3795,1.95 -0.909,1.0341 -0.1145,-0.1981 -0.1181,-0.4862 -0.0076,-0.6823l-0.058 -0.0324zm0.1515 -1.1169c0.0597,0.4744 1.0205,0.3693 0.9617,-0.108 -0.0576,-0.4677 -1.0161,-0.3581 -0.9617,0.108zm-0.2128 0.03c-0.1171,-0.956 1.27,-1.1175 1.3882,-0.1606 0.1179,0.9545 -1.269,1.1204 -1.3882,0.1606zm-0.2433 -2.201c0.1153,0.4646 1.0562,0.2423 0.9402,-0.2245 -0.1137,-0.4577 -1.0548,-0.23 -0.9402,0.2245zm0.7221 0.5731l0.0457 0.1819c0.2494,-0.0622 0.4203,-0.0113 0.3572,-0.2573l0.1815 -0.0453 0.1595 0.6393 -0.1811 0.0452c-0.0622,-0.2487 -0.1336,-0.1298 -0.8613,0.0484 -0.1298,0.0316 -0.1152,0.0737 -0.0862,0.1879l-0.1812 0.0454 -0.1599 -0.6396 0.1814 -0.0455c0.0582,0.2339 0.1848,0.1227 0.3852,0.0726l-0.0474 -0.1893c-0.8195,0.0685 -1.0637,-1.2169 -0.2203,-1.4276 0.8681,-0.2169 1.2507,1.1015 0.4269,1.3839zm-2.9927 10.4154l-0.2463 -0.2932c0.431,-0.3631 0.4706,-0.0003 0.456,0.0642 -0.0193,0.0856 -0.1381,0.1691 -0.2097,0.229zm-0.2377 0.4876c0.3223,-0.2704 1.0288,-0.6821 0.6778,-1.1002 -0.2552,-0.304 -0.5852,-0.0409 -0.8222,0.1572 -0.1342,-0.1599 -0.2844,-0.2167 -0.0994,-0.3715l-0.1201 -0.1428 -0.504 0.4228 0.1202 0.1433c0.193,-0.1638 0.1797,-0.0359 0.674,0.5524 0.0826,0.0982 0.0385,0.1242 -0.0463,0.1959l0.12 0.1429zm2.3697 -2.9243l-0.3179 -0.2139c0.3169,-0.4697 0.4527,-0.1272 0.4564,-0.0639 0.0051,0.0878 -0.0862,0.2005 -0.1385,0.2778zm-0.0938 0.5343c0.2356,-0.3494 0.8007,-0.939 0.3475,-1.2446 -0.3281,-0.2213 -0.5737,0.1216 -0.7461,0.3778 -0.1739,-0.1171 -0.333,-0.1291 -0.1983,-0.3294l-0.1546 -0.1047 -0.368 0.5459 0.1551 0.1048c0.1378,-0.21 0.1597,-0.0877 0.8,0.3445 0.1063,0.0717 0.0712,0.1093 0.0092,0.2014l0.1552 0.1043zm-11.3588 3.6703c0.4648,0.1473 0.4441,-0.1459 0.3289,-0.2397l-0.2248 -0.0916 -0.1041 0.3313zm0.1617 -0.513c0.2705,0.0848 0.6656,0.2185 0.5581,0.5628 -0.1105,0.3538 -0.5196,0.2224 -0.78,0.1414 -0.0389,0.1233 0.0143,0.1291 0.1194,0.1622l-0.0561 0.1783 -0.628 -0.1978 0.0563 -0.1782c0.109,0.0339 0.1535,0.0559 0.1898,-0.0652 -0.2621,-0.0827 -0.6692,-0.2095 -0.5588,-0.5635 0.1075,-0.3443 0.5123,-0.2253 0.7809,-0.1406 0.0383,-0.1209 -0.0113,-0.1285 -0.118,-0.1625l0.056 -0.1779 0.6275 0.1979 -0.056 0.1779c-0.1066,-0.0337 -0.1547,-0.0559 -0.1911,0.0652zm-0.4804 0.4129l0.1047 -0.3313c-0.5161,-0.16 -0.47,0.2152 -0.2211,0.2942l0.1164 0.0371zm11.6054 -6.252l0.2039 -0.627 0.1776 0.0576c-0.0781,0.2418 0.0612,0.192 0.5468,0.35 -0.1933,-0.3654 -0.365,-0.9021 -0.4963,-0.5051l-0.1772 -0.0581 0.2043 -0.6284 0.1772 0.0576c-0.0793,0.2419 0.0251,0.1784 0.7608,0.4178 0.1257,0.041 0.1304,-0.002 0.1685,-0.1162l0.1772 0.0578 -0.2036 0.6289 -0.1779 -0.0578c0.0791,-0.243 -0.0678,-0.195 -0.5623,-0.3557 0.1656,0.3132 0.3756,0.9267 0.5114,0.5111l0.1778 0.0578 -0.2033 0.6267 -0.1783 -0.0575c0.0781,-0.236 -0.0253,-0.1803 -0.7553,-0.4153 -0.1278,-0.0413 -0.1364,0.0011 -0.1736,0.1138l-0.1777 -0.058zm0.0335 -0.9899c0.0031,-0.034 -0.0001,-0.071 -0.0098,-0.1115 -0.1178,0.291 -0.4683,-0.2635 -0.0705,-0.2607 0.5355,0.0036 0.1028,1.3392 -0.3341,1.0292 -0.3237,-0.2297 0.2849,-0.4756 0.21,-0.1693 0.1103,-0.0939 0.189,-0.3462 0.2044,-0.4877zm-2.1183 4.1706l0.4412 -0.4897 0.1385 0.1246c-0.1607,0.1796 0.0016,0.2218 0.1557,0.3599l0.3292 -0.365c-0.1636,-0.1474 -0.2076,-0.3006 -0.375,-0.1166l-0.139 -0.1247 0.4424 -0.4914 0.1389 0.125c-0.1674,0.1864 -0.0626,0.1655 0.5247,0.6914 0.0977,0.0874 0.1208,0.0524 0.2006,-0.0378l0.1393 0.125 -0.4427 0.4911 -0.1385 -0.1245c0.1688,-0.192 -0.0079,-0.2285 -0.1941,-0.3965l-0.3292 0.3654c0.1886,0.1699 0.2419,0.3421 0.4139,0.1526l0.1386 0.1246 -0.4413 0.4903 -0.1385 -0.1251c0.1682,-0.1877 0.0436,-0.1787 -0.5213,-0.6868 -0.0997,-0.0898 -0.1248,-0.0548 -0.2043,0.0332l-0.1391 -0.125zm-2.2332 1.6618l1.0416 -0.626 0.0962 0.1603c-0.22,0.1316 -0.0944,0.1554 0.3043,0.8219 0.0645,0.1079 0.1071,0.0704 0.1984,0.015l0.0966 0.16 -0.5643 0.3393 -0.0961 -0.1604c0.2179,-0.129 0.1022,-0.142 -0.3025,-0.8164 -0.1024,-0.1707 -0.3053,0.0377 -0.2981,0.0821 0.0491,0.2993 0.8155,0.8502 0.1465,1.2525 -0.3804,0.2287 -0.8591,-0.2091 -0.5953,-0.3663 0.2055,-0.1224 0.1695,0.3686 0.5411,0.1444 0.2461,-0.1485 -0.1167,-0.5678 -0.2834,-0.8437 -0.0574,-0.095 -0.1087,-0.051 -0.189,-0.0026l-0.096 -0.1601zm-1.1518 0.6526c-0.4451,0.1746 -0.1016,1.0792 0.3457,0.9033 0.4391,-0.1726 0.0911,-1.0754 -0.3457,-0.9033zm-0.0822 -0.1987c0.8955,-0.3535 1.4005,0.9492 0.5031,1.303 -0.8957,0.3531 -1.4008,-0.9488 -0.5031,-1.303zm-1.3461 1.5541l-0.0638 -0.3779c0.5456,-0.0937 0.4128,0.2303 0.3604,0.2864 -0.0596,0.064 -0.2048,0.076 -0.2966,0.0915zm-0.677 -1.0312l0.031 0.1844c0.2499,-0.0411 0.1727,0.0527 0.3021,0.8179 0.0213,0.1258 -0.0297,0.1267 -0.1391,0.1449l0.0311 0.1845c0.4177,-0.0708 1.231,-0.0677 1.1412,-0.6063 -0.0652,-0.3911 -0.4841,-0.3317 -0.7885,-0.2802 -0.052,-0.3066 -0.1385,-0.3294 0.1817,-0.3839 0.1566,-0.0266 0.2624,0.1202 0.3568,0.2477l0.1673 -0.0921 -0.2443 -0.4388 -0.1268 0.0217 -0.0089 0.0475 -0.9036 0.1527zm-1.3634 0.0317l0.1278 -0.0032 0.0147 0.0447 0.7614 -0.02 0.0152 -0.0457 0.1289 -0.0035 0.1796 0.4687 -0.178 0.0679c-0.0842,-0.1554 -0.3562,-0.4362 -0.3513,-0.2253 0.0201,0.8534 -0.0622,0.9092 0.1859,0.9026l0.0048 0.1867 -0.6579 0.017 -0.0049 -0.1863c0.2549,-0.0101 0.158,-0.0895 0.1374,-0.9218 -0.0041,-0.1697 -0.2393,0.0427 -0.3388,0.2537l-0.1787 -0.0581 0.1539 -0.4774zm-1.4116 -0.1187l0.5992 0.0734 -0.0226 0.1858c-0.2252,-0.0291 -0.1001,0.1173 -0.0102,0.4402 0.1717,-0.2907 0.3362,-0.3996 0.0862,-0.4309l0.0226 -0.1854 0.518 0.0636 -0.0227 0.1856c-0.0954,-0.0109 -0.1007,-0.0166 -0.1509,0.0603 -0.1322,0.2025 -0.5269,0.9159 -0.7167,1.014 -0.386,0.1996 -0.5618,-0.3486 -0.2676,-0.3118 0.1938,0.0242 0.1075,0.2681 0.3212,-0.0776 -0.0366,-0.1095 -0.2242,-0.7847 -0.2981,-0.8168 -0.0108,-0.0047 -0.0379,-0.0092 -0.0812,-0.0147l0.0228 -0.1857zm9.9444 -13.2474c0.0561,0.1152 0.1131,0.1697 0.2038,0.2333l-0.0379 0.0539 0.06 0.1239 0.494 -0.0936 -0.0319 -0.1849c-0.8227,-0.0217 -0.4003,-0.8555 -0.1287,-0.2997l0.027 0.0562 0.1685 -0.0814c-0.3596,-0.7378 0.6783,-0.4387 0.2585,-0.0306 -0.2781,0.2703 0.3532,0.5112 0.3255,-0.0904 -0.0385,-0.8373 -1.0759,-0.7933 -0.8545,-0.1929 -0.3812,-0.3536 -0.6796,0.1083 -0.4843,0.5062zm-16.5917 -0.0403l-0.3454 -0.1656c-0.2444,0.5081 0.1167,0.4558 0.1756,0.4257 0.0782,-0.04 0.1295,-0.1756 0.1698,-0.2601zm0.413 -0.3514c-0.1849,0.3859 -0.4047,1.1653 -0.8973,0.9299 -0.3572,-0.1708 -0.1855,-0.5569 -0.0515,-0.835 -0.1875,-0.09 -0.2814,-0.2223 -0.3844,-0.0039l-0.1687 -0.0808 0.2847 -0.5934 0.168 0.0805c-0.1078,0.2277 0.0006,0.1792 0.703,0.5161 0.1152,0.0553 0.1301,0.0055 0.178,-0.0941l0.1682 0.0807zm-0.967 1.7944c0.1482,-0.4544 -0.7678,-0.767 -0.9165,-0.3094 -0.1455,0.4477 0.768,0.7548 0.9165,0.3094zm0.2048 0.0634c-0.2981,0.9156 -1.6242,0.4729 -1.3246,-0.443 0.2997,-0.9157 1.6255,-0.4749 1.3246,0.443zm3.3775 10.2105l0.5643 0.3397 -0.0959 0.1599c-0.2178,-0.1303 -0.2016,0.0179 -0.4638,0.4545 0.3827,-0.1018 0.9673,-0.155 0.6036,-0.3696l0.0968 -0.1604 0.5666 0.3405 -0.0962 0.1599c-0.2161,-0.1297 -0.1775,-0.0235 -0.5787,0.6475 -0.0675,0.1129 -0.0277,0.1276 0.0754,0.1898l-0.0962 0.1603 -0.5666 -0.3405 0.0963 -0.1603c0.2185,0.1325 0.2062,-0.0239 0.4729,-0.4674 -0.3392,0.09 -0.9884,0.1575 -0.6131,0.3833l-0.0965 0.1601 -0.5647 -0.34 0.096 -0.1599c0.2192,0.1325 0.1869,-0.0017 0.5747,-0.6424 0.0695,-0.1148 0.0295,-0.1332 -0.0715,-0.1949l0.0966 -0.1601zm0.957 0.2552c0.0318,0.0107 0.0689,0.0163 0.1107,0.0161 -0.2501,-0.1824 0.3628,-0.3948 0.2698,-0.0103 -0.1263,0.5225 -1.3284,-0.2043 -0.9279,-0.5576 0.2997,-0.2643 0.3974,0.3913 0.1181,0.2432 0.0656,0.1283 0.2954,0.2631 0.4293,0.3086zm-2.2104 -1.3321l0.5015 0.4278 -0.1212 0.1423c-0.1932,-0.1648 -0.2012,-0.0162 -0.5324,0.3715 0.3976,-0.0373 0.9777,0.008 0.6565,-0.2652l0.1214 -0.1423 0.5029 0.4296 -0.1214 0.142c-0.1942,-0.1666 -0.1755,-0.0429 -0.6776,0.5432 -0.0845,0.0987 -0.0488,0.1223 0.0432,0.1992l-0.1215 0.1423 -0.5021 -0.4292 0.1211 -0.1422c0.1948,0.1651 0.2039,0.0147 0.5433,-0.3833 -0.343,0.0323 -1.0028,-0.007 -0.6679,0.2769l-0.1211 0.1423 -0.5012 -0.4283 0.1215 -0.1423c0.189,0.1666 0.1825,0.0346 0.6728,-0.5387 0.0869,-0.1016 0.051,-0.1268 -0.0389,-0.2037l0.1211 -0.1419zm-0.9676 -1.2205l0.4098 0.5154 -0.1464 0.1159c-0.1587,-0.199 -0.2177,-0.0369 -0.469,0.163 0.4562,0.0697 0.7533,0.1933 0.5776,-0.0263l0.1462 -0.1163 0.3804 0.4778 -0.1464 0.1162c-0.1204,-0.1495 -0.4147,-0.1437 -0.5924,-0.1769 -0.1036,0.3872 -0.2578,0.6775 -0.128,0.8405l-0.1464 0.1162 -0.4242 -0.5332 0.1465 -0.1167c0.161,0.2058 0.1409,-0.0176 0.2435,-0.3638l-0.2651 -0.0516c-0.1416,0.1128 -0.2136,0.12 -0.087,0.2795l-0.1461 0.1159 -0.4099 -0.5151 0.1464 -0.1161c0.1535,0.1924 0.1571,0.0864 0.7703,-0.4062 0.0967,-0.0778 0.0622,-0.1162 -0.0063,-0.2019l0.1465 -0.1163zm-0.1548 -0.2906l0.0646 0.1217 -0.3659 0.3444 -0.131 -0.1343c0.4883,-0.7066 -0.4242,-0.9495 -0.7093,-0.3615 -0.1575,0.3249 0.1713,0.5501 0.4588,0.5847l-0.0277 0.1849c-1.3999,-0.2034 -0.5796,-1.8995 0.3174,-1.3396 0.1939,0.121 0.3319,0.3741 0.3271,0.5992l0.066 0.0005zm-1.1066 -2.3614l0.2364 0.6154 -0.1744 0.0669c-0.0907,-0.2373 -0.1685,-0.1105 -0.6452,0.0723 0.3721,0.1589 0.8538,0.4724 0.7038,0.0802l0.1743 -0.0668 0.2372 0.6173 -0.1749 0.0665c-0.0894,-0.2358 -0.1272,-0.1257 -0.8541,0.1542 -0.1224,0.0471 -0.1004,0.0839 -0.0573,0.196l-0.1743 0.067 -0.2372 -0.617 0.1746 -0.067c0.0913,0.2384 0.174,0.1092 0.6604,-0.0776 -0.3188,-0.136 -0.8772,-0.4845 -0.7191,-0.0755l-0.1745 0.0673 -0.2361 -0.6155 0.1745 -0.067c0.0882,0.232 0.1342,0.1244 0.8487,-0.1524 0.1249,-0.0485 0.1051,-0.0871 0.0628,-0.1975l0.1744 -0.0668zm0.5964 0.7869c0.0186,0.0282 0.0442,0.0553 0.0773,0.0808 -0.0945,-0.3035 0.5296,-0.0889 0.219,0.1581 -0.4194,0.3334 -0.9218,-0.9767 -0.3881,-1.0107 0.3938,-0.0251 0.0815,0.549 -0.0567,0.2642 -0.0255,0.1416 0.0696,0.3895 0.1485,0.5076zm-0.8817 -2.4419l0.1109 0.65 -0.184 0.0311c-0.0439,-0.2512 -0.1478,-0.1407 -0.6473,-0.0553 0.3326,0.2275 0.7456,0.6307 0.6747,0.2166l0.1838 -0.0313 0.1117 0.6515 -0.1841 0.0315c-0.0446,-0.256 -0.1112,-0.1414 -0.8681,-0.0165 -0.1293,0.0213 -0.115,0.0634 -0.0946,0.1812l-0.1838 0.0315 -0.1115 -0.652 0.1838 -0.0316c0.0431,0.2521 0.1495,0.1418 0.663,0.0539 -0.2832,-0.1943 -0.7662,-0.6481 -0.6904,-0.2145l-0.1843 0.031 -0.111 -0.65 0.1844 -0.0312c0.0407,0.2426 0.0991,0.1504 0.8618,0.0171 0.1319,-0.0231 0.121,-0.0646 0.1007,-0.1814l0.1843 -0.0316zm-0.0459 -0.3787l0 0.1373 -0.4854 0.1317 -0.0515 -0.1801c0.7627,-0.3969 0.069,-1.0373 -0.4559,-0.6531 -0.2924,0.214 -0.1078,0.5645 0.1291,0.7323l-0.1117 0.1495c-1.1389,-0.8403 0.385,-1.9476 0.9109,-1.0319 0.1139,0.1984 0.1165,0.4858 0.0066,0.6823l0.0579 0.032zm0.013 -1.4194l-0.0231 0.1358 -0.5001 0.0497 -0.0215 -0.186c0.8166,-0.264 0.2429,-1.0112 -0.3416,-0.7195 -0.3236,0.1615 -0.1996,0.5398 0.0067,0.7433l-0.1344 0.1292c-0.7644,-0.7836 0.1723,-1.708 0.8639,-1.1496 0.2832,0.2286 0.3242,0.6743 0.0981,0.9562l0.052 0.0409z"/>
   <path id="_220733584" class="fil2" d="M16.3185 40.4834c0.347,-0.2049 0.9353,-0.8798 1.3498,-1.6043 -0.556,-0.4939 -1.1628,-1.3272 -1.6419,-2.3339 -0.8331,0.049 -1.8877,0.0536 -2.4416,0.0536 -0.6642,2.1271 0.9331,3.337 2.7337,3.8846zm-2.7196 -1.3317c0,0 -0.5574,0.0671 -0.876,0.0934 1.1066,1.563 2.8738,2.7175 4.7948,3.1352 -0.5245,-0.5582 -1.0372,-1.171 -1.2615,-1.5401 -0.8826,-0.284 -2.0836,-0.8666 -2.6573,-1.6885zm8.4474 1.2707l0.1034 0.061c1.8012,-0.5478 3.3972,-1.7567 2.7329,-3.8846 -0.5534,0 -1.608,-0.0046 -2.4409,-0.0536 -0.4787,1.0066 -1.0858,1.8401 -1.6411,2.3339 0.4205,0.7361 0.9462,1.2904 1.2457,1.5433zm2.8224 -1.2707c-0.5731,0.8219 -1.7749,1.4045 -2.6576,1.6885 -0.2234,0.3691 -0.7367,0.982 -1.2607,1.5401 1.9143,-0.4163 3.695,-1.5748 4.7946,-3.1352 -0.3182,-0.0264 -0.8763,-0.0933 -0.8763,-0.0934zm-4.4585 -0.0906c-0.7411,0.1345 -1.6109,0.1343 -2.3525,0 -0.4472,0.7358 -0.9013,1.2172 -1.4216,1.6949 0.1993,0.403 0.946,1.2962 1.2912,1.7024 0.4259,0.0692 0.8623,0.1052 1.3081,0.1052 0.4442,0 0.8795,-0.0358 1.3049,-0.1047 0.3449,-0.4057 1.0927,-1.2999 1.2922,-1.7029 -0.5252,-0.5051 -1.0161,-1.0317 -1.4223,-1.6949z"/>
   <path id="_220733200" class="fil3" d="M14.4686 24.1736c-0.1679,0.2139 -0.3746,0.499 -0.626,0.8263 0,0 0.0939,0.006 0.2065,0.158 0.4822,-0.3126 0.9498,0.8319 0.2045,0.9234 0,-0.0001 -0.2697,0.4036 -0.5172,0.1874 0,-0.0001 0.2193,-0.0549 0.1843,-0.2326 0,-0.0001 -0.2903,-0.1171 -0.153,-0.3137 -0.5702,0.2909 -0.5592,-0.2708 -0.6536,-0.2251 0,-0.0001 -0.62,0.0303 -0.6496,0.9515 0.1136,0.1001 0.2198,0.9292 -0.4338,0.7036 0,-0.0001 -0.1528,0.1654 -0.0413,0.4735 0,-0.0001 -0.3058,-0.1491 -0.213,-0.5435 -0.2298,0.0601 -0.4972,-0.8329 0.2787,-0.8352 0,0 -0.1523,-0.4181 0.3855,-0.564 0,0 -0.8062,-0.06 -0.9084,0.2882 -0.0214,0.0711 -0.1105,0.6233 -0.6807,0.3836 0,-0.0001 -0.2038,0.0862 -0.2485,0.3927 -0.133,-0.2198 -0.2137,-0.5171 0.0274,-0.6609 -0.244,-0.5797 0.2411,-0.6999 0.5989,-0.5508 -0.014,-0.1614 -0.0061,-0.4633 0.7119,-0.3728 0,-0.0001 -0.6267,-0.355 -0.6806,-0.1733 -0.179,0.2429 -0.6436,0.3268 -0.7125,-0.0539 0,0 -0.202,-0.1214 -0.3925,0.23 0,0 -0.1094,-0.5421 0.2862,-0.5281 0.0014,-0.182 0.4236,-0.7504 1.1408,-0.1033 0.3171,0.0662 0.2734,-0.2887 0.64,0.0117 0.4335,-0.6518 0.7545,0.0597 1.1097,-0.0878 0.2243,-0.0802 0.3886,-0.3344 0.6153,-0.5823 -0.4961,0.0275 -0.7169,0.0186 -0.3484,-0.4128 0.3482,0.1098 2.0986,0.4512 1.6198,1.0604 -0.1806,-0.3891 -0.4261,-0.514 -0.7504,-0.3502zm5.798 -1.0628c0.5343,0.2654 0.3322,0.6578 1.5262,1.4264 0.3476,0.2202 0.4604,0.6136 0.4604,0.6136 -1.052,-0.0092 -1.43,-1.3427 -1.8667,-1.4405 -0.0868,1.2349 1.5872,1.5026 1.6537,2.3468 -1.6201,-0.1536 -2.0667,-2.2132 -2.0667,-2.2132 0,-0.0001 0.204,-0.338 0.28,-0.6867l0.0131 -0.0464zm1.7003 -0.0205l0.2464 0.06c0.033,0 0.6732,0.4399 0.7466,0.8734 0.1137,0.6947 -0.6897,0.987 -1.0604,0.2469 0.7871,0.2585 0.8362,-0.4456 0.4073,-0.7538 -0.1738,-0.1331 -0.4935,-0.2264 -0.6804,-0.1864 0.0001,0 0.153,-0.1467 0.3405,-0.2401zm1.8598 0.4604c-0.2207,0.0555 -0.4126,0.1704 -0.6131,0.2732 -0.2283,-0.0892 -0.3588,-0.6064 -0.707,-0.6801 0.3297,-0.0238 0.2361,-0.1046 0.6996,0.0804 0.167,0.0594 0.3739,0.1667 0.6205,0.3265zm-0.6469 1.0004c-0.5377,-0.6405 1.2497,-0.9775 1.6002,-1.0877 0.2596,0.3231 0.2752,0.4455 -0.224,0.4199 0.239,0.2476 0.3544,0.488 0.5986,0.5752 0.3558,0.1475 0.6768,-0.5639 1.1096,0.0878 0.3667,-0.3005 0.3236,0.0545 0.6404,-0.0117 0.7167,-0.6471 1.139,-0.0787 1.1411,0.1033 0.3955,-0.0141 0.286,0.5281 0.286,0.5281 -0.1906,-0.3515 -0.3925,-0.23 -0.3925,-0.23 -0.0692,0.3806 -0.5335,0.2968 -0.7128,0.0539 -0.0538,-0.1817 -0.6801,0.1733 -0.6801,0.1733 0.7177,-0.0905 0.7259,0.2114 0.7117,0.3728 0.3578,-0.1491 0.8426,-0.0289 0.5991,0.5508 0.2404,0.1438 0.1602,0.4411 0.0271,0.6609 -0.0447,-0.3066 -0.2484,-0.3927 -0.2484,-0.3927 -0.5705,0.2397 -0.66,-0.3124 -0.681,-0.3836 -0.1019,-0.3482 -0.9086,-0.2882 -0.9086,-0.2882 0.538,0.1459 0.386,0.564 0.386,0.564 0.7753,0.0023 0.5085,0.8954 0.2786,0.8352 0.0927,0.3944 -0.2134,0.5435 -0.2134,0.5435 0.112,-0.3081 -0.0411,-0.4735 -0.0411,-0.4735 -0.6532,0.2255 -0.5468,-0.6035 -0.4335,-0.7036 -0.0297,-0.9212 -0.65,-0.9515 -0.65,-0.9515 -0.0937,-0.0457 -0.0833,0.5161 -0.6533,0.2251 0.1373,0.1966 -0.1533,0.3137 -0.1533,0.3137 -0.0345,0.1776 0.1847,0.2326 0.1847,0.2326 -0.2479,0.2162 -0.5175,-0.1874 -0.5175,-0.1874 -0.7451,-0.0915 -0.2774,-1.236 0.2043,-0.9234 0.1134,-0.152 0.207,-0.158 0.207,-0.158 -0.3105,-0.4039 -0.5188,-0.682 -0.6892,-0.8781 0.0022,0.0269 0.0045,0.0549 0.0045,0.082 -0.2978,-0.1808 -0.6151,-0.1097 -0.7802,0.3473zm-0.6731 -2.1412c0.9008,0.2787 1.5109,0.1728 2.1666,0.8871 0,-0.0001 -0.4467,0.1202 -0.6802,0.2004 0.0001,-0.0001 -0.3801,-0.2603 -0.8,-0.4133 -0.2729,-0.1068 -0.3999,-0.3939 -0.6864,-0.6742zm-1.0133 -0.6465c0.1106,-0.1761 0.199,-0.3739 0.1729,-0.5866 0.3873,0.2455 1.1221,0.72 1.4134,1.18 -0.5682,-0.1256 -1.0479,-0.2843 -1.5863,-0.5934zm-0.3599 0.3471l0.2063 -0.1731c0.0266,-0.0273 0.3733,0.0995 0.6599,0.2927 0.2804,0.1935 0.5598,0.5203 0.713,0.6872 0,0 -0.4264,0.1063 -0.6996,-0.0136 -0.1428,-0.5799 -0.4108,-0.5582 -0.8796,-0.7932zm-1.16 -0.8535c0.2844,0.5027 0.9638,1.0278 1.406,1.1666 0.367,0.1066 0.4469,0.5203 0.4469,0.5203 -0.1534,0.0796 -0.2268,0.2732 -0.5468,0.2732 -0.5182,0 -1.0717,-0.7351 -1.2002,-1.3135l-0.1059 -0.6466zm0.9128 -0.9067c0.2221,0.4025 0.7404,0.6628 0.5334,1.1468 -0.1064,0.2599 -0.3933,0.4598 -0.3933,0.4598 -0.753,-0.5334 -0.3961,-0.9945 -0.1401,-1.6066zm-2.7734 2.7605c0.0429,0.2902 0.2764,0.6632 0.2871,0.7331 0,0 -0.4404,2.0596 -2.0607,2.2132 0.0672,-0.8512 1.739,-1.1162 1.6534,-2.3468 -0.4409,0.0888 -0.8194,1.4312 -1.8664,1.4405 0.1862,-0.6481 1.0947,-0.8813 1.44,-1.4739 0.2001,-0.34 0.407,-0.5001 0.5466,-0.5661zm-1.7 -0.0205c0.1801,0.0933 0.3399,0.2401 0.3399,0.2401 -0.4894,-0.1009 -1.1456,0.4427 -0.9068,0.8669 0.1399,0.2332 0.6268,0.0733 0.6268,0.0733 -0.36,0.7369 -1.1738,0.4536 -1.0532,-0.2469 0.0731,-0.4336 0.7067,-0.8734 0.7067,-0.8734l0.2866 -0.06zm-1.8604 0.4604c0.2477,-0.165 0.8265,-0.4679 1.0136,-0.4603 0.1132,0.0399 0.3065,0.0534 0.3065,0.0534 -0.3562,0.0731 -0.4829,0.5901 -0.713,0.6801l-0.6071 -0.2732zm1.3138 -1.1408c-0.2868,0.2803 -0.4136,0.5674 -0.687,0.6742 -0.4128,0.153 -0.7934,0.4133 -0.7934,0.4133 -0.2399,-0.0802 -0.6797,-0.2004 -0.6797,-0.2004 0.6609,-0.7378 1.3375,-0.607 2.1601,-0.8871zm1.0133 -0.6465c-0.56,0.3213 -0.9981,0.4632 -1.5865,0.5934 0.329,-0.4797 0.9995,-0.9137 1.4198,-1.18 -0.0245,0.2065 0.052,0.4171 0.1667,0.5866zm0.3596 0.3471c-0.4797,0.2395 -0.7388,0.2199 -0.8797,0.7932 -0.2734,0.1198 -0.6933,0.0136 -0.6933,0.0136 0.411,-0.4678 0.7905,-0.8025 1.3401,-1.0072l0.2329 0.2004zm1.1674 -0.8672c0,0.3352 -0.1099,0.8112 -0.2669,1.107 -0.2869,0.5066 -0.687,0.8668 -1.0401,0.8668 -0.3205,0 -0.3873,-0.1935 -0.5534,-0.2732 0,0 0.0799,-0.4136 0.4467,-0.5203 0.4467,-0.1401 1.1334,-0.673 1.4137,-1.1803zm-0.92 -0.893c0.2468,0.59 0.6044,1.0796 -0.1404,1.6066 -0.219,-0.1562 -0.6383,-0.6238 -0.3268,-0.993 0.1068,-0.1336 0.3668,-0.4201 0.4672,-0.6136zm2.1398 4.0064c-0.0333,0.6071 0.6402,0.8336 0.6402,0.8336 -0.3167,0.1117 -0.8115,-0.004 -1.0806,-0.5065 -0.2147,0.4693 -0.7375,0.6241 -1.0797,0.5065 0,-0.0001 0.6797,-0.2264 0.6399,-0.8335 -0.0658,-0.9965 -0.9052,-1.309 -0.2132,-2.3465 0.2132,0.74 0.4534,1.2801 0.6398,1.6537 0.2131,-0.3737 0.4536,-0.9136 0.6665,-1.6537 0.4341,0.6337 0.2612,1.0542 0,1.6004 -0.1163,0.2434 -0.1823,0.4786 -0.2129,0.746zm1.5202 -5.5529c0.812,0.7587 0.4842,1.2701 0.1932,1.8664 -0.5342,-0.9341 -0.7194,-0.9403 -0.2398,-1.7932l0.0466 -0.0732zm-1.1803 0.0798c0.2235,0.2983 0.6255,0.7767 0.6205,1.1667 -0.0137,0.5334 -0.3541,0.8668 -0.4075,1.1868 -0.5951,-0.6799 -1.0557,-1.5427 -0.213,-2.3535zm-0.7802 4.2332c-0.0197,-0.2402 -0.5066,-0.9729 -0.5329,-1.7401 -0.0065,-0.3863 0.3332,-0.9996 0.5268,-1.2265 0.4491,0.4951 0.6473,1.1464 0.4533,1.7867l-0.4472 1.1799zm2.6138 -6.0732c0.4571,0.9491 0.5199,1.2518 -0.1401,2.1 -0.1582,-0.5637 -0.7927,-0.8512 -0.0468,-1.807l0.1869 -0.293zm-1.3069 0.0601c0.2579,0.5313 1.1816,1.0094 -0.04,2.1598 -0.4631,-0.8107 -0.7051,-1.0623 -0.1864,-1.7934l0.2264 -0.3664zm-1.2995 2.3132c-0.1059,-0.3371 -0.7457,-0.7786 -0.4601,-1.3402 0.0928,-0.1801 0.4129,-0.6331 0.4532,-0.7601 0.1698,0.5428 0.9215,0.8595 0.2397,1.7268l-0.2328 0.3735zm2.06 -4.1399c0.123,0.292 0.4,0.683 0.6135,0.9196 0.0128,0.0136 -0.0274,0.2668 -0.2072,0.6268 -0.1935,0.367 -0.447,0.6202 -0.5868,0.7464 0.0029,0 -0.6502,-0.9955 -0.4464,-1.42 0.0999,-0.233 0.4603,-0.5729 0.6269,-0.8728zm1.4395 0.3396c-0.1683,0.1683 -0.5098,0.4481 -0.6999,0.4067 0.0532,-0.1667 0.3602,-0.7403 0.3602,-0.7403l0.3397 0.3336zm0.1071 -0.1334c-0.4767,-0.3745 -0.3914,-0.811 -0.3537,-1.2535 0.3865,0.187 0.8534,-0.0665 0.8534,-0.0665 0.0001,0.4547 -0.2513,0.9502 -0.4997,1.32zm-1.0935 -1.8669c0.1561,0.1918 0.3164,0.3956 0.5334,0.5201 0.1355,0.8702 -0.1195,0.9671 -0.373,1.7137 0,-0.0001 -0.421,-0.5469 -0.4605,-0.8669 -0.1349,-0.9305 -0.0786,-0.5907 0.3001,-1.3669zm-1.1868 2.1999c-0.0952,-0.2803 -0.2462,-0.6083 -0.4735,-0.8064 -0.0265,-0.0201 -0.32,-0.8868 0.6268,-1.42 0,0 0.3932,0.5137 0.4997,1.0067 0.1068,0.4866 -0.4127,0.7801 -0.653,1.2197zm-0.6131 -0.4797c0.4259,0.3734 0.4864,1.1333 0.4327,1.3872 -0.093,0.4933 -0.6397,0.9263 -0.6397,0.9263 -0.0858,-0.2928 -0.6249,-1.0788 -0.2263,-1.66 0.1497,-0.2182 0.3243,-0.4092 0.4333,-0.6535zm-0.7206 0.6731c-0.0668,-0.2865 -0.6665,-0.8462 -0.6063,-1.1394 0.0797,-0.4602 0.3798,-0.3668 0.6062,-0.5537 0.2286,0.1825 0.9306,0.2466 0.4606,0.9665 -0.156,0.2388 -0.3564,0.4596 -0.4605,0.7266zm0 -1.8333c-0.3691,-0.1844 -0.6707,-0.6745 -0.5598,-1.0997 0.08,-0.2935 0.2338,-0.4136 0.3333,-0.6002 0.0802,0.0736 0.1336,0.127 0.2264,0.1866 0.1073,-0.0597 0.1536,-0.113 0.2272,-0.1866 0.1127,0.2265 0.711,0.7543 0.0602,1.5001l-0.2873 0.1998zm2.2539 -3.2399c0.4198,1.1868 1.3532,1.113 1.3532,1.1136 -0.1021,0.5336 -1.2375,0.7036 -1.3937,-0.5469 -0.0238,-0.1905 -0.0011,-0.3807 0.0405,-0.5667zm-0.5269 0.4531c0.6531,1.1066 1.313,1.6803 1.8202,1.6534 0.4532,-0.0265 0.6667,-0.6799 0.6667,-0.6799 0.4647,0.3692 0.1739,1.6732 -0.6801,1.6732 -0.6498,0 -1.3542,-1.13 -1.5802,-1.7733 -0.0822,-0.2345 -0.2266,-0.6297 -0.2266,-0.8734zm-0.1599 0.1869c0.1755,0.7938 0.3336,1.2179 0.7864,1.8401 -0.1198,0.2734 -0.3331,0.5869 -0.3331,0.5869 -0.2736,-0.489 -0.8187,-1.4784 -0.6068,-2.1136l0.1535 -0.3134zm-0.9005 0.3065c0.2942,0.3374 0.9374,1.0242 0.6334,1.4868 -0.1398,0.2136 -0.4732,0.5538 -0.7598,0.7004 0.7724,-1.2009 -0.3273,-1.2226 0.1264,-2.1872zm-0.6592 0.5203c-0.9704,-0.8286 -0.0304,-1.1808 -0.0135,-1.5735 0.0917,0.5747 0.9505,0.6132 0.0135,1.5735zm0.8593 -2.9669c0.2619,0.8053 0.6005,1.4197 0.5069,2.0068 -0.0271,0.1666 -0.2737,0.4866 -0.2737,0.4866 -0.5802,-1.0491 -1.1157,-0.7324 -0.3593,-2.2334l0.1261 -0.26zm-0.8593 1.1533c-0.0498,-0.4397 -1.2252,-1.2184 -0.0069,-1.7467 0.3258,0.1348 0.7009,0.4333 0.4932,0.8734 -0.1214,0.257 -0.4506,0.6078 -0.4863,0.8733zm1.626 -1.1668c0.2202,0.1802 0.4001,0.3668 0.4264,0.8669 0.0337,0.4935 -0.0994,1.1334 -0.0994,1.1334 -0.3407,-0.6941 -0.9303,-0.8709 -0.3736,-1.9071l0.0466 -0.0932zm1.7605 -0.9267l0.3602 0.0733c0.0107,0.0034 -0.6738,0.1042 -0.8138,0.8535 -0.0862,0.4333 -0.3399,0.9005 -0.4198,1.0401 0.0197,-0.3065 -0.167,-0.92 -0.2132,-1.0069 0.3903,-0.2537 0.4509,-0.5711 1.0866,-0.96zm-2.0602 -0.7202c-0.172,0.5163 -0.6262,0.9555 -1.134,1.0402 0.1068,-0.5491 0.3859,-0.9438 0.8677,-1.0133l0.2663 -0.0269zm0.6531 -0.1333c-0.1377,0.3843 -0.2842,0.7489 -0.5069,1.0935 -0.1796,0.2734 -0.2929,0.7265 -0.2666,0.8803 0,0 -0.2664,-0.5802 -0.1328,-0.9867 0.1065,-0.3202 0.3865,-0.7869 0.9063,-0.9871zm-2.4869 -5.9339l0.3271 0 0 -0.3533 0.2533 0 0 0.3533 0.3267 0 0 0.2272 -0.3267 0 0 0.4131 -0.2533 0 0 -0.4131 -0.3271 0 0 -0.2272zm3.8607 2.1004l0.3136 0 0 -0.3532 0.2665 0 0 0.3532 0.3195 0 0 0.2269 -0.3195 0 0 0.4134 -0.2665 0 0 -0.4134 -0.3136 0 0 -0.2269zm0.2601 1.94c-0.2338,0.0135 -0.2137,0.0135 -0.307,0.0269 -0.0599,-0.0737 -0.473,-0.6935 -0.5067,-0.82 -0.0889,-0.3054 0.4931,-0.3358 0.6408,0.0599l0.1729 0.7332zm0.366 0c0.0348,-0.2365 0.0945,-0.7044 0.2475,-0.8867 0.1604,-0.1912 0.662,-0.2143 0.5728,0.0936 -0.04,0.1265 -0.453,0.7464 -0.5069,0.82 -0.0933,-0.0134 -0.0799,-0.0134 -0.3134,-0.0269zm-0.2063 -1.1932c0.6221,0 0.1558,0.5684 0.0268,0.8802 -0.1397,-0.3364 -0.5807,-0.8018 -0.0268,-0.8802zm0.007 3.2403c-0.4053,0.6013 -1.0082,0.7963 -1.3605,1.2865 -0.0426,-0.7251 0.7037,-1.131 1.3201,-1.2804l0.0404 -0.0061zm-0.8536 0.1467c-0.6051,0.4351 -0.979,0.851 -1.1805,1.3131 -0.1393,-0.233 -0.1259,-0.3997 -0.1265,-0.3997 0.2534,-0.2867 0.5671,-0.9938 0.5671,-0.9938 0.1063,-0.0129 0.2261,-0.0465 0.3266,-0.0662 -0.0131,0.0867 -0.0066,0.2736 -0.0066,0.2736l0.4199 -0.127zm1.1 -0.2068c0.8028,0.1666 1.2397,0.6455 0.78,1.3671 -0.2531,-0.8668 -1.2464,-0.8539 -1.2464,-0.8539l0.4664 -0.5132zm1.5386 -1.195c0.2776,0 0.5511,-0.0182 0.7335,0.2337 0.1998,0.2866 0.1164,0.8335 -0.2834,1.0664 0,-0.0001 -0.6097,-0.5298 -1.3501,-0.0165 0,-0.0001 -0.1799,-0.0965 -0.5663,-0.1833 0.4882,-0.5772 1.1407,-0.4805 1.3335,-1.0669l0.1328 -0.0334zm-0.0503 0.5671c-0.1946,0 -0.1942,0.3334 0,0.3334 0.2227,0 0.1997,-0.3334 0,-0.3334zm-0.7551 -0.8387c0.6731,-0.201 0.174,0.5395 -0.2063,0.8197 0.1263,-0.2568 0.1753,-0.5372 0.2063,-0.8197zm-3.6615 -0.128c0.3802,0.18 1.5766,0.1998 2.2168,0.2329 0.6532,0.0334 1.2833,-0.1995 1.2833,-0.1995 -0.0724,1.4133 -1.0332,1.4996 -1.0332,1.4996l0.0166 -0.2664c-0.3065,0.2464 -0.9334,0.45 -0.9334,0.45 0.0071,-0.1736 0.067,-0.3166 0.067,-0.3166 -0.2671,0.1533 -0.4167,0.1498 -0.4167,0.1498 0.0263,-0.1998 0.167,-0.4335 0.167,-0.4335 -0.1872,0.2337 -0.4172,0.2501 -0.4172,0.2503 -0.0336,-0.1133 0.0334,-0.3999 0.0334,-0.3999 -0.1002,0.113 -0.2601,0.4133 -0.8004,0.5332 -0.5397,0.1136 -0.7835,-0.1998 -0.7835,-0.1998 0.527,0.033 1.017,-0.4667 1.017,-0.4667 -0.2666,-0.1071 -0.3665,-0.3002 -0.3665,-0.3002 0.153,-0.1402 0.3168,-0.1501 0.3168,-0.1501 -0.3007,-0.1402 -0.367,-0.3831 -0.367,-0.3831zm1.8168 0.5332l0 0.0501c0,0 0.8336,0.0032 0.8667,0.4171 0.1488,-0.1004 0.1754,-0.2435 0.2335,-0.4005 0.0169,-0.0334 -0.5934,0 -1.1002,-0.0667zm-2.442 -1.4459c0.6824,-0.0654 1.2893,0.3154 1.6066,0.894 -0.4028,0.0321 -1.3869,-0.1375 -1.6066,-0.894zm-0.0068 -0.7664l-0.2333 -0.0197c0.03,-0.4941 0.2047,-1.847 0.6468,-1.9739 -0.1541,0.4325 -0.3372,1.4401 -0.4135,1.9936zm0.6136 0.1733c-0.1938,-0.0998 -0.2997,-0.1264 -0.4735,-0.1598 0.0668,-0.4535 0.2271,-1.5335 0.4001,-1.6736 0.0859,-0.0656 0.7733,-0.1276 0.5863,0.4934l-0.5129 1.34zm-1.0797 -0.6268c-0.0535,-0.2934 -0.3942,-0.9204 -0.3942,-1.1933 0,-0.5456 1.0765,-0.6005 0.6669,0.4199l-0.2727 0.7734zm4.4531 2.0069c0,0.1481 -1.3067,0.1481 -1.3067,0 0,-0.1256 1.1073,-0.1994 1.3067,0zm-6.4135 12.788c0.5545,0.8872 0.3128,0.9699 -0.2003,1.8664 -0.2903,-0.5952 -0.6077,-1.1121 0.2003,-1.8664zm1.1798 0.0798c0.8316,0.8159 0.3857,1.6762 -0.2196,2.3535 -0.0872,-0.5928 -0.6961,-0.8732 -0.2402,-1.6737l0.4598 -0.6798zm-1.8333 -1.84c0.2654,0.5326 0.7446,0.779 0.4401,1.5 -0.1201,0.2732 -0.2537,0.4333 -0.3003,0.6 -0.6741,-0.867 -0.6066,-1.1332 -0.1398,-2.1zm1.3001 0.0601c0.2214,0.5079 0.7267,0.756 0.4401,1.4664 -0.0665,0.1536 -0.2669,0.4602 -0.3999,0.6934 -1.2111,-1.14 -0.3062,-1.6117 -0.0402,-2.1598zm-0.7535 -1.8267c0.5208,0.9741 1.112,0.6522 0.18,2.2928 -0.3363,-0.3029 -0.742,-0.9123 -0.8131,-1.3595 0.2153,-0.2485 0.51,-0.6317 0.6331,-0.9333zm-1.4469 0.3396l0.3335 -0.3197c0.0065,-0.014 0.3199,0.5597 0.3733,0.7264 -0.189,0.0412 -0.5345,-0.2344 -0.7068,-0.4067zm-0.1064 -0.1334c-0.2791,-0.464 -0.4226,-0.7862 -0.5072,-1.32 0,0 0.4735,0.2535 0.8666,0.0665 0.0314,0.4175 0.1086,0.8981 -0.3594,1.2535zm1.1 -1.8669c0.1265,0.2604 0.3536,0.6335 0.3536,0.6335 -0.0134,0.1531 -0.0068,0.4135 -0.0536,0.7334 -0.0463,0.32 -0.4607,0.8669 -0.4607,0.8669 -0.256,-0.7058 -0.5024,-0.916 -0.3793,-1.7137 0.2269,-0.1142 0.3738,-0.3367 0.54,-0.5201zm1.1868 2.1999c-0.2403,-0.4397 -0.7601,-0.733 -0.6536,-1.2197 0.1001,-0.493 0.4935,-1.0067 0.4935,-1.0067 0.9471,0.5332 0.6465,1.4 0.6465,1.4 -0.0878,0.1404 -0.3146,0.2987 -0.4864,0.8264zm0.6066 -0.4797c0.1304,0.2916 0.5694,0.7055 0.5867,0.9937 -0.0132,0.6799 -0.3136,1.0931 -0.3804,1.3198 0.0001,-0.0001 -0.5395,-0.433 -0.6331,-0.9263 -0.0533,-0.2539 0,-1.0137 0.4268,-1.3872zm-1.5268 -4.4001c0.1089,0.4954 0.0484,1.1311 -0.4335,1.4332 -0.2198,0.1333 -0.727,0.1667 -0.9265,-0.3196 0,-0.0006 0.9333,0.0733 1.36,-1.1136zm0.5269 0.4531c-0.0832,0.6718 -0.374,1.3729 -0.7874,1.9066 -0.4325,0.5468 -0.7861,0.7401 -1.0196,0.7401 -0.8424,0 -1.1583,-1.2935 -0.6799,-1.6732 0,0 0.2135,0.6534 0.6599,0.6799 0.5132,0.0269 1.1668,-0.5468 1.827,-1.6534zm0.153 0.1869c0.5422,0.7158 -0.1192,1.8094 -0.4467,2.427 0,-0.0001 -0.2201,-0.3134 -0.3404,-0.5869 0.4354,-0.5965 0.6175,-1.0782 0.7871,-1.8401zm0.9076 0.3065c0.4464,1.0134 -0.6573,0.9557 0.1196,2.1872 -0.2865,-0.1466 -0.6071,-0.4868 -0.7606,-0.7004 -0.2664,-0.3882 0.1732,-0.9368 0.4206,-1.2333l0.2204 -0.2535zm-0.2006 -2.4466c0.1636,0.2867 0.3783,0.7506 0.4669,1.0669 0.1733,0.6193 -0.3835,0.8589 -0.7067,1.4265 0,0 -0.2403,-0.3199 -0.2737,-0.4866 -0.0991,-0.5614 0.2588,-1.2249 0.5135,-2.0068zm-0.767 -0.0135c0.1653,0.3253 0.3332,0.6732 0.2338,1.0467 -0.1207,0.4202 -0.3868,0.6003 -0.5598,0.9536 0,0 -0.1338,-0.6399 -0.1075,-1.1334 0.0339,-0.5001 0.2137,-0.6867 0.4335,-0.8669zm-1.7596 -0.9267c0.6342,0.3882 0.6903,0.7096 1.0863,0.96 -0.0533,0.0869 -0.2398,0.7004 -0.1864,1 -0.6287,-0.7815 -0.1569,-1.5505 -1.2801,-1.8798l0.3802 -0.0802zm2.053 -0.7202c0.6146,0 0.9963,0.354 1.1402,1.0402 -0.4858,-0.0797 -0.9425,-0.4879 -1.1402,-1.0402zm-0.6467 -0.1333c0.5135,0.2001 0.7998,0.6669 0.9002,0.9871 0.1333,0.4064 -0.1267,0.9867 -0.1267,0.9867 0.0414,-0.4853 -0.5149,-1.2371 -0.7002,-1.7473l-0.0733 -0.2265zm-1.3735 -3.8335l0 0.2269 -0.3197 0 0 0.4134 -0.26 0 0 -0.4134 -0.32 0 0 -0.2269 0.32 0 0 -0.3532 0.26 0 0 0.3532 0.3197 0zm-0.2665 1.94c0.1157,-0.4038 0.0629,-1.0634 0.6667,-1.02 0.0931,0.0067 0.1867,0.0999 0.1533,0.2269 -0.04,0.1265 -0.4538,0.7464 -0.5064,0.82 -0.0939,-0.0134 -0.0799,-0.0134 -0.3136,-0.0269zm-0.36 0c-0.2403,0.0135 -0.2198,0.0135 -0.3139,0.0269 -0.0531,-0.0737 -0.4662,-0.6935 -0.5063,-0.82 -0.0938,-0.2974 0.4974,-0.3416 0.647,0.0599l0.1732 0.7332zm0.2064 -1.1932c0.5552,0.0777 0.1114,0.5492 -0.0266,0.8802 -0.13,-0.3133 -0.5937,-0.8802 0.0266,-0.8802zm-0.0063 3.2403c0.6241,0.1541 1.4098,0.5261 1.3535,1.2865 -0.3447,-0.4923 -0.9477,-0.6845 -1.3535,-1.2865zm0.8532 0.1528l0.4204 0.1209c0,0 -0.0006,-0.1869 -0.0069,-0.2736 0.1004,0.0196 0.2132,0.0533 0.32,0.0662 0,0 0.3202,0.7072 0.5734,0.9938 0,0 0.0132,0.1667 -0.1267,0.3997 -0.2083,-0.4607 -0.569,-0.8771 -1.1802,-1.307zm-1.0998 -0.2129l0.4269 0.4803c0.0395,0.0328 -0.9604,0.02 -1.2073,0.8868 -0.46,-0.7224 -0.0228,-1.2006 0.7804,-1.3671zm-1.8515 -1.195c0.1644,-0.0181 0.3431,0.0071 0.4499,0.0337 0.208,0.6343 0.8697,0.527 1.2165,0.9496l0.0836 0.0838c-0.3697,0.1199 -0.5335,0.2165 -0.5335,0.2165 -0.74,-0.5134 -1.3503,0.0165 -1.3503,0.0165 -0.5836,-0.3343 -0.4931,-1.2302 0.1338,-1.3001zm0.35 0.5671c-0.2687,0 -0.1216,0.4687 0.0999,0.2997 0.1211,-0.0925 0.0175,-0.2997 -0.0999,-0.2997zm0.7679 -0.8387c0.0327,0.2845 0.0789,0.5607 0.2065,0.8197 -0.3698,-0.2725 -0.889,-1.0201 -0.2065,-0.8197zm3.6653 -0.128c0,0 -0.0759,0.243 -0.3833,0.3831 0,0 0.167,0.0099 0.3336,0.1501 0,0 -0.1036,0.1932 -0.3831,0.3002 0.0001,0 0.4965,0.4998 1.0162,0.4667 0.0001,0 -0.2361,0.3134 -0.7829,0.1998 -0.5338,-0.12 -0.7073,-0.4202 -0.8003,-0.5332 0,0 0.0733,0.2866 0.0336,0.3999 0,0 -0.2203,-0.0171 -0.4002,-0.2503 0,0 0.1234,0.2332 0.1497,0.4335 0,0 -0.1562,0.0035 -0.417,-0.1498 0,-0.0001 0.0605,0.143 0.0668,0.3166 0,0 -0.6163,-0.2036 -0.9168,-0.4836 0,0 -0.0129,0.1872 0,0.3 0,0 -0.9596,-0.0862 -1.0328,-1.4996 0.4226,0.1381 0.8371,0.2109 1.2826,0.1995 0.6472,-0.0331 1.8477,-0.0529 2.2339,-0.2329zm-1.833 0.5332c-0.5072,0.0667 -1.1001,0.0333 -1.1001,0.0333 0.0329,0.1867 0.0997,0.3468 0.2335,0.4339 0.0332,-0.4139 0.8666,-0.417 0.8666,-0.417l0 -0.0502zm1.9482 -0.8053c-0.3529,0.1744 -0.6996,0.2534 -1.094,0.2534 0.2975,-0.5743 0.9401,-0.9771 1.5938,-0.8939 -0.0468,0.1603 -0.26,0.4935 -0.4998,0.6405zm0.5133 -1.407c-0.0927,-0.5954 -0.2401,-1.5106 -0.4205,-1.9936 0.4428,0.1272 0.6111,1.4729 0.6804,1.974l-0.2599 0.0196zm-0.6201 0.1733c-0.1457,-0.3519 -0.5396,-1.2151 -0.5536,-1.5598 -0.0107,-0.2631 0.4631,-0.3981 0.6264,-0.2736 0.1736,0.1401 0.3406,1.2201 0.3947,1.6736 -0.1672,0.0333 -0.2679,0.06 -0.4675,0.1598zm1.2862 0.6802c0,0.2509 -0.3995,0.2851 -0.3995,0.0001 0.0001,-0.248 0.3994,-0.246 0.3995,-0.0001zm-4.6598 0.6999c0.2066,-0.1803 1.3134,-0.1491 1.3134,0 0,0.1491 -1.3134,0.1472 -1.3134,0zm3.4467 -1.1664c0.1554,-0.3546 2.027,-0.2157 2.027,0.0001 0.0001,0.273 -2.0277,0.2734 -2.027,-0.0001zm10.0407 12.8807c1.0204,1.017 1.9896,2.2504 1.927,3.767 -2.0646,-0.6461 -2.1217,-2.3738 -2.9207,-3.127l0.5475 -0.0203c0.3328,0.6006 0.9798,1.5874 1.5666,1.9268 0,0 0.153,-0.7996 -1.5732,-2.4131 -0.0273,-0.0668 -0.0602,-0.1401 -0.1136,-0.2198 0.2097,0.0782 0.4566,0.0493 0.5664,0.0864zm-5.5402 -1.8269c0.096,-0.0809 0.1448,0.2325 0.6065,0.2134 -0.0415,0.3236 0.0477,0.6287 0.2133,0.9602 0.1994,-0.0496 0.1832,-0.0006 0.5132,-0.1601 -0.1796,0.2335 -0.3597,0.4133 -0.4996,1.1066 -0.2068,1.0334 -0.3936,1.0603 -0.3936,1.0603 -0.1396,-0.3731 -0.4333,-1.0469 -0.78,-1.7068 -0.2951,-0.5646 -0.1469,-1.1515 -0.0063,-1.227l0.3465 -0.2466zm4.9604 -4.6534c0.5321,-0.6268 0.5498,-1.8107 0.9068,-2.4403 0.1265,-0.2201 0.5865,-0.9804 1.4799,-1.2202 0,0 0.2337,0.9936 -0.2135,1.7937 -0.3933,0.6799 -1.1868,1.3997 -2.1732,1.8668zm0.8334 0.4733c-0.1631,-0.1123 -0.1904,-0.1858 -0.6207,-0.2132 0.2669,-0.2069 0.9007,-0.7401 1.3474,-0.987 0.4935,-0.2731 1.3069,-0.6467 1.7197,-0.6999 0.0001,0 -0.3867,1.0199 -0.8397,1.4332 -0.4672,0.4269 -0.7932,0.5868 -1.6067,0.4669zm-0.2937 1.2467l-0.2731 -0.0736c0.2063,-0.2001 0.4133,-0.4929 0.52,-0.9396 0.8534,0.1889 1.37,-0.3691 2.0865,0.1133 -0.157,0.8272 -1.6252,1.141 -2.3334,0.8999zm0.147 1.0202c0.2662,-0.2343 0.3696,-0.5585 0.4193,-0.6068 0.5009,-0.1998 1.0143,-0.3066 1.5204,-0.1202 0.507,0.1934 0.64,0.4136 0.7667,0.6 0.0001,-0.0001 -0.5595,0.4732 -1.1999,0.4937 -0.6464,0.0129 -1.2467,-0.1735 -1.5065,-0.3667zm-0.2399 0.947l-0.3338 -0.5341c0.4067,-0.073 0.7801,-0.0864 1.2601,0.014 0.5732,0.1059 1.1606,0.2395 1.4538,1.1067 -0.5404,0.4626 -1.9063,0.1013 -2.3801,-0.5866zm-1.0804 0.5462c0.3632,0.1042 0.713,0.0411 1.0737,-0.0264l0.0395 -0.1069c0.4734,0.3934 1.0471,0.4599 1.2401,0.8135 0,0 -0.2398,0.4399 -0.86,0.3605 -0.6199,-0.0741 -1.0866,-0.3605 -1.42,-0.7806 -0.013,-0.06 -0.04,-0.1729 -0.0733,-0.2601zm0.0868 0.66c0.2871,0.1002 0.4863,0.1536 0.9067,0.4404 0.62,0.4132 0.3734,0.9402 0.3728,0.9402 -0.9328,0.1261 -1.3858,-0.6405 -1.5064,-0.7869 0.1195,-0.1911 0.1837,-0.3739 0.2269,-0.5937zm-0.4 0.6604c1.0534,0.9798 0.9263,1.3733 0.9263,1.3733 -0.7784,0.1283 -2.1465,-0.6799 -1.7532,-1.6934 0.2419,0.1748 0.5296,0.2886 0.8269,0.3201zm-1.1998 -0.0334c0.3786,0.4274 0.4247,1.1202 0.2667,1.6264 -0.0937,0.3139 -0.4466,0.7002 -0.4466,0.7002 -0.471,-0.5663 -0.5647,-0.9186 -0.4804,-1.6935 0.0198,-0.1863 0.0534,-0.2931 0.1262,-0.5 0.2852,0.0961 0.3134,0.1533 0.5341,-0.1331zm-0.8403 -0.0668c0.1395,0.8895 0.0827,1.8281 -0.5598,2.58 -0.3938,0.4669 -0.9205,0.3934 -0.9205,0.3934 0.5355,-0.8899 0.281,-1.8497 1.3133,-3.1468l0.167 0.1734zm5.9 -2.3338c1.8871,0.5471 3.3137,0.3536 3.3137,0.3536 -0.7735,-0.3865 -2.28,-0.4532 -2.9867,-0.52 0.1733,-0.0997 0.2666,-0.1799 0.28,-0.1933 0.8401,0.1196 2.7535,0.0997 3.4794,0.2399 0.7278,0.1401 1.8075,0.5599 2.4809,0.9735 0,-0.0001 -1.0333,0.3602 -2.9734,0.2134 -1.9399,-0.1398 -3.1141,-0.3533 -3.8009,-0.5531 -0.1195,-0.147 -0.2526,-0.2603 -0.3862,-0.3468 0.2091,-0.0316 0.4033,-0.0715 0.5932,-0.1672zm0.0468 0.9738l-0.0468 -0.1067c1.8788,0.3056 4.0991,0.2753 5.2674,2.5 0.0001,0 -1.0404,0.3202 -3.0003,-0.5999 -1.9537,-0.9201 -2.5669,-1.1135 -2.9402,-1.2134 0.2998,-0.0202 0.5129,-0.1201 0.6196,-0.1866 0.7807,0.3468 1.821,0.7598 2.8603,0.7871 -0.6619,-0.4652 -1.8876,-0.9538 -2.76,-1.1805zm-1.0199 0.82l-0.1062 -0.1801c0.4996,0.1933 2.2865,0.8666 2.8663,1.1669 0.5802,0.2999 1.4137,0.9799 1.8666,2.3667 0.0006,0 -1.2062,0.1067 -2.1998,-0.7204 -0.9937,-0.8197 -2.1537,-1.9731 -2.6538,-2.3399 0.0534,-0.0398 0.0933,-0.0865 0.1207,-0.1264 0,0 1.3464,1.1936 2.7735,1.7065 -0.5584,-0.994 -1.6614,-1.4146 -2.6673,-1.8733zm-0.967 1.0735c1.4735,1.5735 2.3273,1.8399 2.3273,1.8399 -0.5474,-1.1 -1.9,-1.7867 -2.3607,-2.0533 -0.0264,-0.1005 -0.0799,-0.207 -0.1595,-0.3132 0.3034,-0.0001 0.4637,0.0222 0.6864,-0.0805 0.607,0.4465 1.4466,1.1203 2.093,1.8604 0.6539,0.7333 0.8937,1.4197 1.0139,2.287 0.0001,0 -1.2268,-0.0404 -1.9935,-1.1135 -0.7665,-1.067 -1.1533,-1.5597 -1.6731,-2.0602l0.0662 -0.3666zm-1.5404 3.3933c0.167,-0.7269 -0.2464,-1.6667 -0.4667,-2.4599 0.0801,0.0399 0.1541,0.073 0.2335,0.0999 0.6337,1.0334 1.3803,2.5134 0.7606,3.6205 0,0 -0.6604,-0.3071 -1.0204,-0.9002 -0.3658,-0.6043 -0.5334,-2.0682 -0.5334,-3.2136l0.3201 0.2464c0,0.5965 0.3258,2.1717 0.7063,2.6069zm-1.5462 -1.48l0.3134 -0.4599c0.0663,0.7198 0.2598,2.6533 -0.3865,3.2601 0,0 -0.4469,-0.3268 -0.6005,-3.1465 0.0934,0.1595 0.2598,0.326 0.3332,0.4196 0,0 -0.1063,0.8933 0.2137,1.5267 0.0001,0 0.3265,-0.2464 0.1267,-1.6zm-1.1802 0.1332l0.3005 -0.5203c-0.1537,1.2672 -0.2069,2.1206 -0.8936,2.9407 0,0 -0.4136,-0.5464 -0.1467,-1.8801 0.1199,-0.0334 0.2394,-0.0867 0.3664,-0.1735 0.0001,0 -0.1535,0.5402 -0.0599,1.0866 0.0001,0 0.2466,-0.1799 0.4333,-1.4534zm3.6406 -10.5007c0.1729,1.3603 -0.3334,2.2871 -0.7472,2.6068 -0.4196,0.3336 -0.5937,0.667 -0.5937,0.667 0.9941,-0.6402 1.6206,-0.2403 1.6206,-0.2403 -0.1935,1.0405 -1.0667,1.2333 -1.0667,1.2336 0.9405,-0.1066 1.3265,0.3667 1.3265,0.3667 -0.3466,0.7598 -1.2534,0.8001 -1.2534,0.8001 0.8001,0.6265 0.6602,1.0798 0.6602,1.0798 -0.8867,0.2071 -1.3735,-0.2264 -1.3735,-0.2264 0.68,0.8871 0.1602,1.5467 0.1602,1.5467 -0.913,-0.1201 -1.2073,-0.8331 -1.2073,-0.8331 0.0942,0.8 -0.3129,1.0064 -0.3129,1.0064 -0.4863,-0.1534 -0.7269,-0.5934 -0.7269,-0.5934 -0.2598,0.5605 -0.8663,0.6667 -0.8663,0.6667 -0.2669,-0.5066 -0.0734,-0.9798 -0.0734,-0.9798 -0.5202,0.1601 -0.6804,-0.1536 -0.6804,-0.1536 0.3265,-0.3662 0.5206,-0.9399 0.5206,-0.9399 0.9062,0.3599 2.0197,0.173 2.3336,-0.1935 0.3126,-0.3669 -0.2067,-1.3001 -0.4869,-1.9669 -0.3152,-0.7464 0.1459,-1.1777 0.5534,-1.4533 0.9303,-0.6291 1.725,-1.3687 2.2135,-2.3936zm-17.8149 8.9474c0.2268,0 0.4004,-0.0268 0.56,-0.0864 -0.0466,0.0796 -0.0794,0.153 -0.1068,0.2198 -1.7265,1.6134 -1.5799,2.4131 -1.5799,2.4131 0.5869,-0.3394 1.2399,-1.3262 1.5733,-1.9268l0.5469 0.0203c-0.7971,0.7499 -0.8556,2.4775 -2.9202,3.127 -0.1315,-1.4803 0.9497,-2.7856 1.9267,-3.767zm20.108 -9.7209c0.8628,-1.8671 2.3634,-4.0787 3.9736,-5.4402 0.1735,0.7666 0.4468,2.1932 -0.2132,3.4268 -0.6191,1.1715 -2.3997,3.2406 -4.0272,3.9269 -0.1998,0.0801 -0.3931,0.1735 -0.5598,0.2605 0.734,-0.8292 0.7022,-1.302 0.7932,-1.427 0.5872,-0.3937 1.1868,-1.0336 1.6006,-1.4135 0.4133,-0.3733 0.9998,-1.1334 1.3264,-2.087 -0.3867,0.2535 -0.7333,0.5603 -1.1539,1.0735 -0.5996,0.7535 -1.2333,1.5667 -1.7592,2.2405l0.0195 -0.5605zm0.5264 2.5867c1.5917,-0.7677 2.8732,-1.4944 3.9076,-2.833 -1.0075,0.3461 -2.8068,1.8256 -3.7602,2.5934l0.2598 -0.7602c0.8468,-0.6668 2.0736,-1.8598 2.4735,-2.2602 0.4072,-0.4064 1.9668,-1.7534 2.6872,-1.8998 0,0 0.2127,1.527 -0.5335,2.5466 -0.7405,1.0268 -3.1407,2.6732 -5.321,3.0403l0.2866 -0.4271zm-0.1062 1.507c1.1939,-0.2264 2.7538,-0.5774 3.6868,-1.1998 -1.3862,0.1332 -2.343,0.4639 -3.767,1.0067 -0.227,-0.16 -0.4996,-0.2272 -0.7528,-0.2334 0.666,-0.3001 2.5597,-1.007 3.8065,-1.3869 1.0601,-0.3267 2.4464,-0.7465 4.1537,-0.6999 0.0001,0 -0.3604,1.0267 -2.327,1.8401 -1.4665,0.6133 -4.18,0.9602 -5.5604,1.5599 0.3512,-0.1564 0.6867,-0.4996 0.7602,-0.8867zm-0.0064 1.1535l-0.3336 -0.1599c0.9602,-0.3002 2.307,-0.7803 4.3402,-0.9133 1.4865,-0.1005 2.5536,-0.0136 3.1134,0.133 0,0 -1.3598,0.9539 -2.9066,1.2936 -1.5471,0.3331 -2.8068,0.1199 -3.7276,0.1267 -0.0593,-0.0937 -0.1261,-0.1866 -0.2331,-0.2934 1.0732,0.0065 2.8607,-0.2671 3.5072,-0.4803 0,-0.0001 -1.5599,-0.3332 -3.7599,0.2936zm-22.582 -5.2472l0.0199 0.5604c-0.5329,-0.6737 -1.1665,-1.4869 -1.7665,-2.2404 -0.4138,-0.5133 -0.7603,-0.82 -1.1536,-1.0735 0.3333,0.9536 0.9201,1.7137 1.3335,2.087 0.4135,0.3799 1.0135,1.0199 1.6003,1.4135 0.1038,0.1425 0.0473,0.6113 0.7932,1.427l-0.7467 -0.3402c-1.6069,-0.8466 -3.2067,-2.6204 -3.8469,-3.8472 -0.6465,-1.2336 -0.3802,-2.6602 -0.2135,-3.4268 0.7336,0.6202 1.7936,1.8399 2.2468,2.4998 0.2168,0.3133 1.7335,2.6544 1.7335,2.9404zm7.6008 7.894l0.3599 0.2534c0.0331,0.02 0.32,0.5663 -0.0266,1.2202 -0.3468,0.6599 -0.6333,1.3337 -0.7734,1.7068 0,0 -0.1867,-0.0268 -0.3936,-1.0603 -0.1399,-0.6933 -0.3135,-0.8731 -0.4998,-1.1066 0.3175,0.1588 0.3163,0.1111 0.5134,0.1601 0.1618,-0.3255 0.2509,-0.6418 0.2136,-0.9602 0.3199,0.0132 0.4929,-0.1535 0.5597,-0.2331l0.0468 0.0197zm-4.967 -4.6534c-1.7231,-0.8159 -2.7366,-2.1451 -2.3802,-3.6605 0.8935,0.2398 1.3533,1.0002 1.48,1.2202 0.3447,0.6069 0.3276,1.6431 0.9002,2.4403zm-0.8334 0.4733c-0.8069,0.1199 -1.1337,-0.04 -1.6069,-0.4669 -0.447,-0.4133 -0.8398,-1.4332 -0.8398,-1.4332 0.4199,0.0531 1.2336,0.4268 1.7197,0.6999 0.447,0.2468 1.0871,0.7801 1.3535,0.987 -0.436,0.0273 -0.4629,0.1002 -0.6265,0.2132zm0.2997 1.2467c-0.7157,0.2388 -2.1725,-0.0506 -2.3333,-0.8999 0.7193,-0.4842 1.2545,0.0804 2.0798,-0.1133 0.1065,0.4466 0.3268,0.7396 0.5404,0.9333l-0.2869 0.0799zm-0.1533 1.0202c-0.2597,0.1931 -0.8531,0.3796 -1.4999,0.3667 -0.6471,-0.0206 -1.2067,-0.4937 -1.2067,-0.4937 0.1272,-0.1864 0.26,-0.4065 0.7666,-0.6 0.5069,-0.1864 1.0269,-0.0796 1.5204,0.1202l0.2196 0.3932 0.2 0.2136zm0.2469 0.947c-0.4717,0.6677 -1.8566,1.0433 -2.3799,0.5866 0.2929,-0.8672 0.88,-1.0007 1.4529,-1.1067 0.4801,-0.1004 0.8468,-0.087 1.2601,-0.0139l-0.3331 0.534zm1.0735 0.5462c-0.0337,0.0872 -0.06,0.2001 -0.0666,0.2601 -0.3333,0.4201 -0.8,0.7065 -1.4204,0.7806 -0.6197,0.0794 -0.8598,-0.3605 -0.8598,-0.3605 0.193,-0.3537 0.7669,-0.4201 1.2401,-0.8134l0.0332 0.1068c0.3606,0.0674 0.7112,0.1309 1.0735,0.0264zm-0.0802 0.66c0.0206,0.1998 0.0951,0.3802 0.1933,0.5537 -0.0934,0.1863 -0.5401,0.9531 -1.4737,0.8269 0,-0.0001 -0.2532,-0.5269 0.367,-0.9402 0.4202,-0.2868 0.6266,-0.3402 0.9134,-0.4404zm0.4001 0.6604c0.2827,-0.0299 0.5514,-0.1368 0.787,-0.2936 0.562,0.6046 -0.7282,1.8283 -1.7203,1.6669 0,-0.0001 -0.1196,-0.3934 0.9333,-1.3733zm1.1931 -0.0334c0.2202,0.2517 0.2349,0.2548 0.5338,0.1331 0.1572,0.407 0.2472,0.9838 0.113,1.4336 -0.113,0.3802 -0.3394,0.6066 -0.4661,0.7599 -0.5853,-0.6515 -0.7853,-1.5922 -0.1807,-2.3266zm0.84 -0.0668l0.1342 -0.1336c0.5105,0.3423 0.8221,1.441 0.9661,2.0471 0.0663,0.2864 0.2604,0.8601 0.387,1.0599 -0.8608,0.1186 -1.3999,-0.9687 -1.5067,-1.76 -0.0468,-0.3665 -0.0268,-0.8731 0.0194,-1.2134zm-6.1466 -6.1075l0.2803 0.427c-2.1806,-0.367 -4.581,-2.0133 -5.3209,-3.0402 -0.7393,-1.0197 -0.5263,-2.5466 -0.5263,-2.5466 0.7196,0.1464 2.28,1.4934 2.6799,1.8998 0.4067,0.4003 1.6334,1.5935 2.4798,2.2603l0.2602 0.7601c-0.9547,-0.7689 -2.7488,-2.2383 -3.7599,-2.5934 1.0088,1.3221 2.335,2.081 3.9069,2.833zm0.1065 1.507c0.1172,0.3956 0.3792,0.7156 0.7598,0.8867 -1.3795,-0.5997 -4.1004,-0.9465 -5.5538,-1.5599 -1.9731,-0.8135 -2.3336,-1.8401 -2.3336,-1.8401 1.7069,-0.0466 3.0871,0.3733 4.1475,0.6999 1.2535,0.3799 3.1465,1.0868 3.8069,1.3869 -0.2468,0.0062 -0.5202,0.0735 -0.7466,0.2334 -1.4273,-0.544 -2.3782,-0.8727 -3.7736,-1.0067 0.9467,0.6242 2.4783,0.9714 3.6934,1.1998zm0 1.1535c-2.1935,-0.6269 -3.7536,-0.2936 -3.7536,-0.2936 0.6401,0.2132 2.4338,0.4868 3.507,0.4803 -0.1071,0.1067 -0.1735,0.1998 -0.2398,0.2934 -0.9134,-0.0069 -2.1738,0.2064 -3.7205,-0.1267 -1.5533,-0.3397 -2.9073,-1.2936 -2.9073,-1.2936 0.5537,-0.1467 1.634,-0.2334 3.1208,-0.133 2.0265,0.133 3.3737,0.6131 4.3533,0.9066l-0.3599 0.1666zm0.1467 1.1132l0.5466 0.1602c-0.0933,0.0935 -0.2201,0.2068 -0.3397,0.3538 -0.6935,0.1997 -1.8675,0.4133 -3.8073,0.5531 -1.9397,0.1467 -2.9732,-0.2134 -2.9732,-0.2134 0.673,-0.4136 1.7533,-0.8334 2.48,-0.9735 0.7336,-0.1403 2.6465,-0.1203 3.4802,-0.2399 0.0137,0.0134 0.1199,0.0936 0.2866,0.1933 -0.7131,0.0667 -2.2135,0.1335 -2.9936,0.52 0.0001,-0.0001 1.4332,0.1935 3.3204,-0.3536zm-0.0466 0.9738c-0.8776,0.2281 -2.0881,0.7083 -2.7603,1.1805 1.0399,-0.0273 2.0799,-0.4403 2.8603,-0.7871 0.1065,0.0664 0.3202,0.1664 0.6199,0.1866 -0.3733,0.0999 -0.987,0.2934 -2.9467,1.2134 -1.9534,0.9201 -2.9933,0.5999 -2.9933,0.5999 1.1938,-2.2759 3.3793,-2.127 5.2806,-2.5337l-0.0605 0.1404zm1.0202 0.82c-1.0099,0.4603 -2.1031,0.8679 -2.6671,1.8733 1.4269,-0.513 2.7738,-1.7065 2.7738,-1.7065 0.0263,0.0398 0.0662,0.0867 0.1133,0.1264 -0.4937,0.3667 -1.6534,1.5202 -2.6472,2.3399 -0.9999,0.8271 -2.2067,0.7204 -2.2067,0.7204 0.4535,-1.3869 1.2941,-2.0668 1.8667,-2.3667 0.5802,-0.3003 2.367,-0.9736 2.8739,-1.1668l-0.1067 0.18zm0.9664 1.0735l0.0668 0.3665c-0.5198,0.5006 -0.9068,0.9933 -1.6737,2.0603 -0.7732,1.0731 -1.9937,1.1135 -1.9937,1.1135 0.1204,-0.8674 0.3539,-1.5537 1.0072,-2.287 0.6463,-0.7402 1.4868,-1.4139 2.1005,-1.8604 0.2237,0.1033 0.3811,0.0805 0.6867,0.0805 -0.0804,0.1061 -0.1341,0.2127 -0.1601,0.3132 -0.4672,0.2665 -1.8138,0.9533 -2.3607,2.0533 0,0 0.8537,-0.2663 2.327,-1.8399zm1.5404 3.3933c0.5853,-0.7559 0.6445,-2.4392 0.7062,-2.5733 0.0472,-0.1024 0.236,-0.1963 0.3203,-0.28 0,1.1451 -0.1684,2.6115 -0.533,3.2136 -0.3604,0.593 -1.0209,0.9002 -1.0209,0.9002 -0.6196,-1.1071 0.1276,-2.587 0.7538,-3.6205 0.0802,-0.0269 0.1599,-0.06 0.2403,-0.0999 -0.2269,0.7931 -0.6402,1.733 -0.4667,2.4599zm1.5402 -1.48c-0.1938,1.3536 0.1267,1.6 0.1267,1.6 0.3197,-0.6335 0.2135,-1.5267 0.2135,-1.5267 0.0794,-0.0936 0.2461,-0.26 0.3394,-0.4196 -0.1596,2.8196 -0.6,3.1465 -0.6,3.1465 -0.6533,-0.6068 -0.4595,-2.5402 -0.3996,-3.2735 0.0847,0.1519 0.1915,0.3546 0.32,0.4733zm1.1865 0.1332c0.1796,1.2735 0.4267,1.4534 0.4267,1.4534 0.0999,-0.5464 -0.06,-1.0866 -0.06,-1.0866 0.1268,0.0868 0.2601,0.1401 0.3666,0.1735 0.2734,1.3337 -0.1465,1.8801 -0.1465,1.8801 -0.6801,-0.8201 -0.7335,-1.6735 -0.8936,-2.9406l0.3068 0.5202zm-3.6402 -10.5007c0.4613,1.083 1.4073,1.8324 2.3472,2.4872 0.3262,0.2263 0.6996,0.6999 0.4196,1.3597 -0.2803,0.6668 -0.8,1.6001 -0.4866,1.9669 0.3131,0.3664 1.4202,0.5535 2.3265,0.1935 0,-0.0001 0.1935,0.5737 0.5271,0.9399 0,0 -0.1604,0.3137 -0.6801,0.1536 0,0 0.1932,0.4732 -0.0734,0.9798 0,0 -0.6071,-0.1062 -0.8734,-0.6667 0,0 -0.2403,0.4401 -0.7267,0.5934 0,0 -0.4002,-0.2064 -0.3131,-1.0064 0,-0.0001 -0.294,0.713 -1.2005,0.8331 0,-0.0001 -0.52,-0.6596 0.1604,-1.5467 0,0 -0.494,0.4335 -1.3737,0.2264 0,0 -0.1467,-0.4533 0.6599,-1.0798 0,0 -0.9068,-0.0403 -1.253,-0.8001 0,0 0.3801,-0.4732 1.3197,-0.3667 0,-0.0001 -0.8733,-0.193 -1.0663,-1.2336 0,-0.0001 0.6265,-0.3999 1.6261,0.2403 0,-0.0001 -0.173,-0.3333 -0.5931,-0.667 -0.4201,-0.3198 -0.9268,-1.2465 -0.7466,-2.6068z"/>
  </g>
 </g>
</svg>
