<svg xmlns="http://www.w3.org/2000/svg" version="1.1" xmlns:xlink="http://www.w3.org/1999/xlink" xmlns:svgjs="http://svgjs.com/svgjs" width="512" height="512" x="0" y="0" viewBox="0 0 420.746 420.746" style="enable-background:new 0 0 512 512" xml:space="preserve" class=""><g><path d="M397.194 31.776H177.381v361.119H420.746V31.776h-23.552zM342.24 55.328v39.25h-86.352v-39.25h86.352zm-141.309 0h31.406V118.13H365.792V55.328h31.402v141.306h-48.405c-5.41-24.658-27.399-43.176-53.648-43.176-26.26 0-48.245 18.518-53.65 43.176h-40.56V55.328zm65.136 141.306c4.677-11.483 15.917-19.626 29.073-19.626 13.141 0 24.386 8.143 29.055 19.626h-58.128zm58.128 23.55c-4.669 11.493-15.914 19.628-29.055 19.628-13.156 0-24.396-8.135-29.073-19.628h58.128zm-68.306 149.16v-39.253h86.352v39.253h-86.352zm141.305 0h-31.402v-62.805H232.337v62.805h-31.406v-149.16h40.56c5.405 24.657 27.391 43.18 53.65 43.18 26.249 0 48.238-18.522 53.648-43.18h48.405v149.16zM23.55 27.851c13.01 0 23.552 10.545 23.552 23.551 0 13.006-10.542 23.552-23.552 23.552C10.544 74.954 0 64.409 0 51.402c0-13.006 10.544-23.551 23.55-23.551zM59.625 39.627h62.802v23.552H59.625zM23.55 90.653c13.01 0 23.552 10.546 23.552 23.552S36.56 137.757 23.55 137.757C10.544 137.757 0 127.211 0 114.205s10.544-23.552 23.55-23.552zM59.625 102.429h62.802v23.552H59.625zM23.55 153.458c13.01 0 23.552 10.545 23.552 23.549 0 13.008-10.542 23.552-23.552 23.552-13.006 0-23.55-10.543-23.55-23.552 0-13.004 10.544-23.549 23.55-23.549zM59.625 165.233h62.802v23.55H59.625zM23.55 216.26c13.01 0 23.552 10.548 23.552 23.552 0 13-10.542 23.552-23.552 23.552C10.544 263.363 0 252.812 0 239.812c0-13.004 10.544-23.552 23.55-23.552zM59.625 228.034h62.802v23.552H59.625zM23.55 279.064c13.01 0 23.552 10.548 23.552 23.552 0 13-10.542 23.548-23.552 23.548-13.006 0-23.55-10.548-23.55-23.548 0-13.004 10.544-23.552 23.55-23.552zM59.625 290.838h62.802v23.552H59.625zM23.55 341.865c13.01 0 23.552 10.551 23.552 23.552 0 13.004-10.542 23.552-23.552 23.552-13.006 0-23.55-10.548-23.55-23.552 0-13.001 10.544-23.552 23.55-23.552zM59.625 353.643h62.802v23.552H59.625z" fill="#000000" data-original="#000000" class=""></path></g></svg>