<svg xmlns="http://www.w3.org/2000/svg" version="1.1" xmlns:xlink="http://www.w3.org/1999/xlink" xmlns:svgjs="http://svgjs.com/svgjs" width="512" height="512" x="0" y="0" viewBox="0 0 478.289 478.289" style="enable-background:new 0 0 512 512" xml:space="preserve" class=""><g><path d="M425.683 215.019h-19.717a7.843 7.843 0 0 0-7.851 7.851v52.085a7.851 7.851 0 0 0 7.851 7.851h19.717a7.85 7.85 0 0 0 7.85-7.851V222.87a7.842 7.842 0 0 0-7.85-7.851z" fill="#000000" data-original="#000000" class=""></path><path d="M441.284 140.329v242.914a7.845 7.845 0 0 1-7.851 7.851H23.551a7.843 7.843 0 0 1-7.851-7.851V114.559a7.846 7.846 0 0 1 7.851-7.851h244.203c2.079-3.025 4.464-5.843 6.688-7.64 4.937-4.005 15.24-4.601 20.942-4.601 2.192 0 4.433.086 6.668.272 2.124.181 4.541.315 7.102.411l2.016-4.144H7.851A7.847 7.847 0 0 0 0 98.858V398.96a7.853 7.853 0 0 0 7.851 7.847h441.284c4.332 0 7.851-3.527 7.851-7.847V134.396a104.76 104.76 0 0 0-3.458 1.026c-2.077.667-6.662 2.508-12.244 4.907z" fill="#000000" data-original="#000000" class=""></path><path d="M239.543 125.706v14.145c1.557-1.688 3.116-3.312 4.569-4.661l13.507-12.64c1.166-1.106 2.593-2.867 3.879-4.695h-14.097a7.85 7.85 0 0 0-7.858 7.851zM240.441 190.203c-.3-.306-.599-.747-.898-1.086v21.251c0 4.344 3.473 8.652 7.288 10.71.345.188.659.431 1.004.629l2.073-4.254-.36-.503c-2.641-3.69-3.032-11.07-3.032-15.138v-3.384c-.628-1.372-2.778-4.756-6.075-8.225z" fill="#000000" data-original="#000000" class=""></path><path d="M448.184 71.481c-16.635 0-32.957 2.112-36.455 4.727-3.511 2.599-6.356 4.719-6.356 4.719l-17.308 11.542-6.925 4.324c-3.815 2.394-11.573 4.324-17.316 4.324h-10.387l-15.565 1.42 4.601-8.195s-4.616-13.708-17.757-6.492l-7.426 15.278c-4.564-.072-8.992-.26-12.611-.567-9.417-.793-19.26.371-22.005 2.599-2.757 2.23-6.363 7.137-8.078 10.966-1.712 3.825-5.551 9.249-8.58 12.113-3.025 2.875-5.482 5.197-5.482 5.197l-8.079 7.506c-4.454 4.144-9.367 10.024-10.954 13.125-1.591 3.11-2.371 9.311-1.733 13.85.635 4.546 4.833 12.106 9.38 16.879 4.55 4.779 8.213 10.525 8.213 12.832v4.186c0 4.623.713 9.365 1.595 10.6.293.407.562.793.79 1.124.437.619 2.961 1.294 3.635.336l-7.896 16.21-2.885 13.276 10.392-7.508 10.531-18.759c1.134 1.034 4.355 1.583 7.281 1.23 2.993-.36 6.472-.36 7.79 0 1.319.361 4.225 1.423 6.488 2.38 2.276.958 4.107 1.733 4.107 1.733l4.108 1.303c2.271.713 6.243-.257 8.872-2.166 2.629-1.91 7.506-7.033 10.892-11.445 3.391-4.404 8.588-9.027 11.605-10.307l5.475-2.331 9.157-4.428c5.049-2.442 12.924-7.225 17.601-10.68 4.668-3.446 10.52-8.57 13.064-11.445 2.561-2.871 9.918-9.067 16.45-13.846 6.532-4.785 20.346-12.657 30.865-17.603 10.52-4.937 22.662-10.111 27.122-11.542 4.465-1.433 11.626-3.24 15.985-4.033 4.364-.8 7.903-12.86 7.903-26.942.016-14.075-13.46-25.49-30.104-25.49zM272.27 195.611c.329-1.701.421-3.372.169-4.623l-.942-4.623-2.168-8.065-.653-3.462c-.36-1.912 1.52-5.304 4.188-7.574 2.665-2.268 6.636-4.891 8.868-5.849 2.232-.952 4.039-1.729 4.039-1.729l4.541-1.733c.092-.03.221-.046.305-.08l-18.347 37.738zm39.69-13.715c-.354 2.464-2.285 6.344-4.324 8.66-2.032 2.306-5.703 5.45-8.22 7.003-2.513 1.557-6.376 3.296-8.656 3.895-2.26.597-6.106 2.142-8.575 3.46-.882.471-1.88 1.168-2.886 1.924l25.583-45.549c1.251 1.289 2.325 2.779 2.982 4.238 1.426 3.228 2.593 5.843 2.593 5.843l1.09 3.027c.581 1.684.782 5.034.413 7.499zM41.521 244.65c-.199 0-.387.017-.575.028-1.437.124-2.733.602-3.963 1.45-.832.582-1.813 1.788-1.783 3.219-.014 1.418.894 2.652 1.799 3.266 1.192.79 2.395 1.19 3.557 1.19 1.433-.017 2.615-.469 3.477-1.259.667-.629 1.537-1.747 1.751-3.386.158-1.274-.329-2.625-1.227-3.427-1.02-.937-2.339-1.081-3.036-1.081z" fill="#000000" data-original="#000000" class=""></path><path d="M53.775 215.019H34.053a7.842 7.842 0 0 0-7.851 7.851v52.085a7.85 7.85 0 0 0 7.851 7.851h19.722a7.851 7.851 0 0 0 7.851-7.851V222.87a7.848 7.848 0 0 0-7.851-7.851zm-5.181 41.606c-1.986 2.292-4.765 3.603-7.618 3.603h-.299c-2.99-.036-5.869-1.486-7.478-3.771-1.407-1.872-2.158-4.341-2.17-7.062.042-2.829.793-5.222 2.23-7.105 1.549-2.124 4.24-3.482 7.011-3.482l.621.032c2.573.185 5.057 1.455 6.969 3.57 1.792 1.964 2.868 4.309 3.116 6.793.365 2.501-.501 5.246-2.382 7.422z" fill="#000000" data-original="#000000" class=""></path><path d="M60.189 279.346c-1.439 1.888-2.194 4.265-2.24 7.102.008 2.729.763 5.189 2.166 7.069 1.617 2.284 4.5 3.738 7.484 3.771h.299c2.855 0 5.626-1.318 7.612-3.618 1.885-2.181 2.749-4.922 2.38-7.406-.234-2.484-1.311-4.837-3.11-6.809-1.916-2.1-4.388-3.374-6.987-3.578l-.571-.024c-2.787.007-5.496 1.35-7.033 3.493zm3.709 3.852c1.221-.846 2.507-1.318 3.968-1.451.188-.023.385-.032.571-.032.7 0 2.022.133 3.034 1.051.9.813 1.379 2.164 1.222 3.434a5.654 5.654 0 0 1-1.741 3.406c-.874.798-2.058 1.227-3.495 1.259-1.162 0-2.362-.417-3.559-1.198-.899-.613-1.813-1.84-1.797-3.258-.022-1.428.958-2.638 1.797-3.211zM165.487 338.348a3.1 3.1 0 0 0-.465.032c-1.533.196-2.559 1.27-3.158 2.144a8.037 8.037 0 0 0-1.411 3.896c-.096 1.025.196 2.561 1.304 3.458.966.834 2.425 1.082 3.649.729 1.429-.429 2.553-1.122 3.296-2.056.815-1.006 1.242-2.192 1.196-3.374a5.593 5.593 0 0 0-1.477-3.527c-.738-.797-1.869-1.302-2.934-1.302zM200.349 262.134c.689.485 1.364.99 2.016 1.527 1.116.981 2.465 2.268 3.665 3.787a31.275 31.275 0 0 1-4.056-7.514c-.463.492-.882 1.073-1.302 1.687-.112.177-.223.337-.323.513zM169.404 241.336c-.15 0-.307.016-.465.032-1.631.22-2.685 1.442-3.166 2.14a8.017 8.017 0 0 0-1.411 3.899c-.096 1.029.188 2.561 1.305 3.45.946.821 2.422 1.082 3.648.722 1.423-.413 2.545-1.103 3.296-2.057.817-.993 1.242-2.191 1.192-3.354a5.551 5.551 0 0 0-1.475-3.527c-.736-.796-1.858-1.305-2.924-1.305zM166.977 188.6c1.419-.415 2.535-1.108 3.296-2.054.817-1.006 1.238-2.2 1.2-3.37a5.621 5.621 0 0 0-1.477-3.522c-.743-.802-1.873-1.303-2.943-1.303a3.35 3.35 0 0 0-.463.03c-1.619.219-2.669 1.437-3.156 2.134a8.078 8.078 0 0 0-1.413 3.903c-.092 1.028.198 2.557 1.303 3.455.942.824 2.411 1.066 3.653.727z" fill="#000000" data-original="#000000" class=""></path><path d="M216.551 221.079c3.815-2.066 7.292-6.374 7.292-10.71v-84.663a7.845 7.845 0 0 0-7.851-7.851H67.709c-4.342 0-7.759 3.573-8.754 7.785-2.921 12.343-12.631 22.061-24.97 24.982-4.216 1.004-7.782 4.418-7.782 8.754v26.751a7.84 7.84 0 0 0 7.851 7.85h40.97a7.85 7.85 0 0 1 7.851 7.851v7.452c0 .99.034 1.916.088 2.787-.276-2.418-1.311-4.703-3.056-6.604-1.932-2.116-4.412-3.388-6.969-3.581l-.621-.024c-2.763 0-5.454 1.354-7.003 3.48-1.445 1.89-2.188 4.27-2.238 7.111 0 2.733.764 5.189 2.17 7.073 1.617 2.284 4.497 3.729 7.478 3.767h.298c2.861 0 5.633-1.318 7.618-3.619 1.709-1.978 2.525-4.42 2.391-6.718.208 2.448.583 4.178 1.032 4.178h1.184c16.423 1.475 29.4 15.042 29.4 31.767 0 14.026-9.115 25.82-21.722 30.004-4.122 1.366-7.931 1.619-8.275 1.643-.315.013-.629.013-.629.013-.188 0-.383.031-.563.063-.314.044-.583 3.571-.583 7.895v7.438c0 4.34-3.509 7.866-7.851 7.866h-40.97a7.845 7.845 0 0 0-7.851 7.851v26.754c0 4.34 3.559 7.758 7.77 8.756 12.343 2.922 22.061 12.636 24.982 24.979.996 4.216 4.412 7.786 8.754 7.786h148.283a7.843 7.843 0 0 0 7.851-7.851v-84.665c0-4.34-3.468-8.647-7.292-10.703a32.127 32.127 0 0 1-9.43-7.791c.872 1.375 1.729 3.146 1.679 5.153l-.156 6.97-3.508-6.02c-.651-1.143-1.617-2.023-2.621-2.957l-.398-.369a164.628 164.628 0 0 0-3.761-3.222l-.942-.806c-.204.417-.402.821-.599 1.234-.974 2.02-1.961 4.071-3.14 6.104l-3.557 6.155-.108-7.105c-.034-1.796.22-3.635.767-5.778a26.854 26.854 0 0 1 1.783-4.926 42.323 42.323 0 0 1-2.04-2.1l-4.875-5.398 6.929 2.209a24.33 24.33 0 0 1 2.631 1.045c.337-.416.689-.812 1.062-1.174 1.026-1.025 2.549-2.184 4.38-2.669-.425-2.06-.724-4.176-.724-6.372-.006-12.066 6.728-22.467 16.628-27.83zm-140.474-5.475c-.861.793-2.05 1.234-3.468 1.266-1.17 0-2.38-.407-3.573-1.192-1.108-.755-1.813-2.009-1.805-3.266-.032-1.431.958-2.629 1.79-3.22 1.23-.847 2.51-1.318 3.963-1.445a6.89 6.89 0 0 1 .583-.03c.697 0 2.016.14 3.028 1.06.906.817 1.38 2.158 1.228 3.432a5.635 5.635 0 0 1-1.746 3.395zm117.912 101.063h.032c1.984 0 3.775.261 5.761.773 1.601.409 3.22.99 4.913 1.787a35.221 35.221 0 0 1 2.098-2.039l5.474-4.93-2.292 7.001a26.336 26.336 0 0 1-1.04 2.605c.433.353.823.705 1.196 1.09 1.985 1.947 3.014 4.231 2.871 6.376l-.457 6.868-3.242-6.063c-.633-1.193-1.671-1.972-2.872-2.781-.172-.115-.336-.232-.517-.336a37.884 37.884 0 0 1-1.535 2.023c-1.05 1.202-2.44 2.729-4.204 4.023-1.376 1.026-3.519 2.408-6.037 2.408l-7.137-.176 6.029-3.49c1.116-.646 2.001-1.596 2.936-2.605l.376-.408a151.49 151.49 0 0 0 3.212-3.755l.817-.966c-.449-.217-.881-.429-1.32-.63-1.992-.966-4.013-1.931-6.021-3.098l-6.164-3.542 7.123-.135zM158.984 176.69c1.759-1.786 4.458-2.901 7.215-2.982l.517-.008c2.449 0 4.757.697 6.674 2.028 2.196 1.365 3.745 3.853 4.15 6.781.435 3.056-.429 6.045-2.369 8.189-1.781 2.066-4.412 3.31-7.027 3.31-.229 0-.455-.014-.681-.03-2.343-.142-4.711-1.146-6.801-2.905-2.142-1.867-3.477-3.979-3.985-6.293-.674-2.826.212-5.936 2.307-8.09zm-33.293 33.871a3.128 3.128 0 0 1 2.074-1.218c.148-.024 17.646-2.466 31.979-2.998l-2.751-7.971 5.635 5.063c1.617 1.455 4.508 3.109 7.363 4.218l4.938 1.909-4.991 1.77c-2.884 1.02-5.819 2.593-7.482 4l-5.793 4.905 2.879-7.6c-13.212.521-29.006 2.661-30.885 2.921-2.016.094-3.358-1.132-3.569-2.669a3.088 3.088 0 0 1 .603-2.33zm2.809 111.625c-2.144-.093-3.493-1.539-3.438-3.25.05-1.655 1.423-2.989 3.116-3.034l.495.013c2.537.08 16.839.444 28.657.292l-2.986-7.95 5.773 4.909c1.671 1.431 4.599 2.997 7.462 4.023l4.987 1.763-4.938 1.916c-2.859 1.105-5.745 2.753-7.37 4.204l-5.632 5.013 2.637-7.606c-11.798.132-26.219-.229-28.763-.293zm45.102 28.521c-1.783 2.061-4.412 3.311-7.011 3.311a7.96 7.96 0 0 1-.697-.028c-2.338-.141-4.712-1.15-6.8-2.905-2.144-1.871-3.477-3.979-3.988-6.296-.665-2.829.213-5.935 2.309-8.079 1.775-1.811 4.477-2.921 7.229-2.985l.521-.004c2.451 0 4.743.689 6.646 2.008 2.208 1.37 3.745 3.863 4.164 6.792.436 3.04-.434 6.029-2.373 8.186zm3.917-97.012c-1.792 2.072-4.429 3.314-7.02 3.314-.226 0-.455-.017-.681-.032-2.347-.152-4.719-1.15-6.809-2.913-2.142-1.872-3.468-3.972-3.985-6.288-.675-2.821.203-5.938 2.306-8.095 1.775-1.796 4.467-2.914 7.222-2.981l.529-.009c2.451 0 4.751.706 6.654 2.024 2.194 1.366 3.745 3.847 4.156 6.769.429 3.073-.433 6.067-2.372 8.211zM263.333 250.814c-.677 11.225-7.137 20.842-16.502 25.912-3.808 2.067-7.288 6.371-7.288 10.703v84.665a7.846 7.846 0 0 0 7.851 7.851h143.561c4.34 0 7.758-3.555 8.756-7.786 2.922-12.343 12.632-22.057 24.982-24.979 4.224-.998 7.782-4.416 7.782-8.756V311.67a7.846 7.846 0 0 0-7.851-7.851h-39.926a7.848 7.848 0 0 1-7.851-7.851v-7.498c0-4.34-.124-7.822-.269-7.834-.084 0-.176-.017-.269-.017h-.396c-17.104-.545-30.837-14.49-30.837-31.723 0-17.212 13.733-31.174 30.837-31.675.185-.016.337-.032.457-.046.261-.03.477-3.573.477-7.913v-7.428c0-4.332 3.511-7.859 7.851-7.859h39.926a7.842 7.842 0 0 0 7.851-7.85v-26.751c0-4.336-3.562-7.75-7.782-8.754-1.086-.258-2.124-.629-3.166-.99-8.816 4.53-18.566 10.223-23.467 13.799-6.568 4.807-13.293 10.56-15.217 12.726-2.897 3.26-9.169 8.77-14.274 12.547-5.081 3.753-13.356 8.778-18.843 11.431l-14.968 6.915c-1.303.575-5.486 3.985-8.464 7.873-3.311 4.3-8.816 10.331-12.503 13.018-3.318 2.406-7.811 3.901-11.75 3.901-1.459 0-2.837-.198-4.088-.597l-4.123-1.305-4.793-1.978c-1.932-.815-4.4-1.743-5.519-2.046-.064.006-.593.006-1.189.006-1.11 0-2.401.07-3.579.212-1.383.165-2.617.218-4.34.11l-8.412 14.978-3.033 2.268c.06.345.044.714.1 1.066l33.471-.798-3.014-7.728 5.818 4.839c1.68 1.402 4.625 2.933 7.515 3.923l5.029 1.719-4.938 1.96c-2.838 1.13-5.703 2.802-7.313 4.288l-5.591 5.121 2.625-7.866-33.334.802z" fill="#000000" data-original="#000000" class=""></path></g></svg>