<svg xmlns="http://www.w3.org/2000/svg" version="1.1" xmlns:xlink="http://www.w3.org/1999/xlink" xmlns:svgjs="http://svgjs.com/svgjs" width="512" height="512" x="0" y="0" viewBox="0 0 314.167 314.167" style="enable-background:new 0 0 512 512" xml:space="preserve" class=""><g><path d="M282.384 113.976c16.353-44.524-8.238-107.48-49.378-84.738l2.63-12.381L223.043 0H90.809L78.216 16.857s.979 4.57 2.589 12.168c-40.923-22.18-65.327 40.558-49.021 84.95 15.679 42.688 59.191 51.693 84.077 83 .042.217.093.497.135.704 1.812 9.548 6.582 16.083 12.308 20.608.611 1.005 1.284 1.844 2.061 2.377h-12.546c-3.661 0-6.628 3.434-6.628 7.658 0 4.236 2.967 7.664 6.628 7.664h1.056c-4.085 1.703-7.021 6.183-7.021 11.49l-5.302 39.846c0 6.768 4.743 12.257 10.604 12.257h60.75c10.899 9.098 24.896 14.587 40.156 14.587 34.601 0 62.743-28.148 62.743-62.744 0-34.595-28.143-62.743-62.743-62.743-4.723 0-9.315.569-13.743 1.564 25.363-26.097 63.577-36.823 78.065-76.267zm-197.136 35.25c-13.505-9.021-26.491-18.634-35.294-33.889C33.555 86.922 44.02 21.681 80.67 50.08c1.708 1.325 3.392 1.719 4.93 1.496 6.944 32.775 17.274 81.693 24.161 115.107-7.767-6.27-16.124-11.852-24.513-17.457zm132.814 55.356c25.87 0 46.836 20.972 46.836 46.836 0 25.865-20.972 46.836-46.836 46.836-4.878 0-9.579-.751-14.007-2.138-19.024-5.955-32.834-23.717-32.834-44.703 0-15.421 7.487-29.055 18.982-37.594 7.793-5.773 17.414-9.237 27.859-9.237zm10.858-55.356c-8.528 5.693-17.021 11.373-24.886 17.773 6.892-33.448 17.274-82.617 24.238-115.493 1.621.329 3.407-.01 5.23-1.426 36.65-28.399 47.115 36.837 30.716 65.257-8.807 15.25-21.788 24.868-35.298 33.889z" fill="#ffffff" data-original="#000000" class="" opacity="1"></path><path d="M184.409 251.423c0 4.076 3.309 7.39 7.384 7.39h18.879v18.874c0 4.075 3.31 7.39 7.385 7.39a7.393 7.393 0 0 0 7.389-7.39v-18.874h18.875a7.393 7.393 0 0 0 7.389-7.39 7.394 7.394 0 0 0-7.389-7.389h-18.875v-18.88a7.386 7.386 0 0 0-7.389-7.384 7.386 7.386 0 0 0-7.385 7.384v18.88H191.793a7.386 7.386 0 0 0-7.384 7.389z" fill="#ffffff" data-original="#000000" class="" opacity="1"></path></g></svg>