<svg xmlns="http://www.w3.org/2000/svg" version="1.1" xmlns:xlink="http://www.w3.org/1999/xlink" xmlns:svgjs="http://svgjs.com/svgjs" width="512" height="512" x="0" y="0" viewBox="0 0 453.357 453.357" style="enable-background:new 0 0 512 512" xml:space="preserve" class=""><g><path d="M451.755 19.624V0H1.595v453.357H40.846V70.434c27.305 40.9 65.081 125.322 76.147 286.441 2.036 29.555 3.212 61.546 3.212 96.482h39.252c0-49.471-2.262-93.569-6.099-133.118C138.13 163.334 97.312 80.435 67.004 39.25H451.762V19.624h-.007z" fill="#ffffff" data-original="#000000" class="" opacity="1"></path><path d="m289.943 167.18 31.976-45.769-38.952-36.338-53.935 19.4 1.826 51.484zM266.788 252.858l29.892 31.166 50.606-21.636 8.48-45.837-51.135-6.294z" fill="#ffffff" data-original="#000000" class="" opacity="1"></path><path d="M278.165 302.807c62.821 0 114.332-48.161 119.767-109.569l1.149-1.25-1.033-.95c.188-2.833.429-5.65.429-8.534 0-30.334-11.31-57.965-29.839-79.131-22.058-25.185-54.354-41.176-90.473-41.176-66.438 0-120.303 53.863-120.303 120.307 0 36.428 16.252 69 41.828 91.061 21.079 18.169 48.456 29.242 78.475 29.242zm90.732-179.689c-.112.008-.204.06-.312.076l-.689-1.655c.352.509.657 1.054 1.001 1.579zm-195.522 55.547-2.096 21.982c-1.006-5.911-1.641-11.948-1.641-18.149 0-12.068 2.065-23.648 5.714-34.496.974-.126 1.917-.533 2.577-1.349l29.469-36.592 9.101-14.585c.493-.793.613-1.687.509-2.553 16.218-11.108 35.614-17.821 56.497-18.715.445.76 1.106 1.411 1.996 1.733l15.713 5.789 30.729 3.969c.169.016.337.032.497.032.974 0 1.88-.36 2.585-.974a109.102 109.102 0 0 1 35.281 27.004 110.594 110.594 0 0 1 3.266 4.005l-3.851-1.302-7.526 25.567 23.841 52.385 9.975 1.974c-5.947 54.258-52.024 96.637-107.845 96.637-26.737 0-51.202-9.767-70.138-25.864-.793-.661-1.529-1.398-2.3-2.088l21.492-18.803-18.422-55.461-35.423-10.146zM333.893 422.461c5.566 13.93 28.345 7.866 22.71-6.256-10.166-25.451-23.099-49.616-33.895-74.774-5.979-13.922-26.265-1.912-20.33 11.882 9.987 23.291 22.109 45.628 31.515 69.148zM403.702 392.657c-10.163-25.438-23.099-49.612-33.891-74.771-5.979-13.918-26.265-1.911-20.334 11.882 9.99 23.283 22.121 45.608 31.526 69.145 5.559 13.93 28.35 7.862 22.699-6.256zM450.806 369.105c-10.167-25.438-23.099-49.611-33.891-74.771-5.983-13.913-26.265-1.911-20.334 11.882 9.99 23.283 22.117 45.609 31.526 69.145 5.559 13.93 28.349 7.867 22.699-6.256z" fill="#ffffff" data-original="#000000" class="" opacity="1"></path></g></svg>