<svg xmlns="http://www.w3.org/2000/svg" version="1.1" xmlns:xlink="http://www.w3.org/1999/xlink" xmlns:svgjs="http://svgjs.com/svgjs" width="512" height="512" x="0" y="0" viewBox="0 0 304.647 304.646" style="enable-background:new 0 0 512 512" xml:space="preserve" class=""><g><path d="M133.486 44.271v12.298h-10.631v6.993h54.241v-6.993h-11.05V44.271h-32.56zm27.258 9.647h-21.955v-4.344h21.955v4.344z" fill="#ffffff" data-original="#000000" opacity="1" class=""></path><path d="M149.764 112.206c19.157 0 34.923 10.514 36.653 23.905h81.069l-21.479-64.452c-2.78-8.334-12.152-15.089-20.939-15.089h-19.59l2.75 31.167h-39.633c-1.958 2.555-7.203 7.428-18.802 7.55h-.399c-11.56 0-17.051-5.049-19.079-7.55H89.63l2.747-31.167H73.203c-8.785 0-17.953 6.817-20.482 15.234l-19.317 64.307h79.705c1.728-13.385 17.503-23.905 36.655-23.905z" fill="#ffffff" data-original="#000000" opacity="1" class=""></path><path d="M160.273 87.737h-21.717c2.434 1.287 5.976 2.369 11.182 2.248 4.878-.047 8.218-1.068 10.535-2.248zM182.399 56.569v12.296h-64.851V56.569H95.039l2.64.234-2.26 25.632h107.019l-2.268-25.632 2.635-.234zM149.764 159.594c15.925 0 29.098-7.933 31.201-18.181h-62.399c2.099 10.248 15.269 18.181 31.198 18.181zM149.764 117.508c-16.14 0-29.471 8.145-31.294 18.603h62.587c-1.817-10.458-15.156-18.603-31.293-18.603zM130.682 254.845h41.666v5.525h-41.666z" fill="#ffffff" data-original="#000000" opacity="1" class=""></path><path d="M269.251 141.413h-82.887c-1.998 13.184-17.646 23.482-36.601 23.482s-34.598-10.299-36.602-23.482H31.814L.649 245.142c-2.526 8.409 2.545 15.229 11.333 15.229h61.252l-2.628-.347 6.172-46.753h47.742c2.636-2.227 11.521-8.627 26.989-8.627 16.35 0 24.314 6.203 26.825 8.627h47.303l7.053 46.711-2.626.394h62.93c8.782 0 13.65-6.752 10.874-15.089l-34.617-103.874z" fill="#ffffff" data-original="#000000" opacity="1" class=""></path><path d="m194.64 260.37-3.164-13.701h-77.393l-2.104 13.701h13.401v-10.827h52.271v10.827z" fill="#ffffff" data-original="#000000" opacity="1" class=""></path><path d="M75.908 260.37h33.388l-2.62-.398 2.864-18.606h86.156l4.246 18.408-2.584.596h30.028l-6.306-41.798H81.428zM134.843 213.271h33.797c-3.785-1.73-9.3-3.325-17.131-3.325-7.185-.006-12.684 1.584-16.666 3.325z" fill="#ffffff" data-original="#000000" opacity="1" class=""></path></g></svg>